<svg width="198" height="42" viewBox="0 0 198 42" fill="none" xmlns="http://www.w3.org/2000/svg">
<g clip-path="url(#clip0_1109_118)">
<path d="M75.2734 1.54102H79.6853V24.8778H94.3524V28.6814H75.2734V1.54102Z" fill="#86C6CA"/>
<path d="M105.764 8.49952C109.008 8.49952 111.478 9.58897 113.176 11.7679C114.747 13.7657 115.532 16.5272 115.532 20.0523H100.816C100.968 21.9014 101.461 23.295 102.296 24.2331C103.136 25.1941 104.324 25.6767 105.909 25.6767C107.061 25.7286 108.198 25.4087 109.154 24.7643C109.915 24.1152 110.512 23.2955 110.897 22.3718H115.232C114.819 24.1516 113.863 25.7588 112.495 26.9702C110.661 28.4879 108.337 29.2852 105.958 29.2127C103.047 29.2127 100.729 28.3125 99.0038 26.512C97.179 24.6629 96.2666 22.1042 96.2666 18.8358C96.2666 15.8973 97.129 13.4521 98.8537 11.5003C100.516 9.49707 102.82 8.49681 105.764 8.49952ZM105.877 12.0315C104.433 12.0315 103.306 12.437 102.495 13.248C101.684 14.059 101.152 15.2376 100.897 16.784H111.003C110.624 13.6183 108.913 12.0342 105.869 12.0315H105.877Z" fill="#86C6CA"/>
<path d="M132.933 1.00977H137.264V28.6814H133.237V26.589C131.866 28.3381 129.889 29.2126 127.304 29.2126C124.369 29.2126 122.088 28.1867 120.464 26.1348C118.947 24.2425 118.187 21.7837 118.185 18.7587C118.185 15.8472 118.932 13.4533 120.427 11.5772C122.025 9.52536 124.241 8.49942 127.077 8.49942C129.359 8.49942 131.311 9.58077 132.933 11.7435V1.00977ZM128.103 11.9949C126.154 11.9949 124.723 12.641 123.809 13.9332C123.026 15.024 122.629 16.6298 122.629 18.7587C122.629 20.8876 122.998 22.5461 123.732 23.6612C124.594 25.0318 126.001 25.7158 127.953 25.7131C128.725 25.743 129.492 25.5718 130.178 25.2164C130.864 24.8609 131.445 24.3335 131.866 23.6856C132.725 22.2681 133.148 20.6295 133.083 18.9736V18.6695C133.083 16.5906 132.577 14.9307 131.566 13.6899C131.163 13.1551 130.639 12.7229 130.037 12.4284C129.436 12.1339 128.773 11.9854 128.103 11.9949Z" fill="#86C6CA"/>
<path d="M155.812 28.2234V25.1821C155.179 26.1393 154.313 26.9203 153.296 27.4521C152.279 27.984 151.144 28.2494 149.997 28.2234C147.337 28.2234 145.183 27.3367 143.537 25.5633C141.891 23.7899 141.066 21.4083 141.063 18.4183C141.063 15.4311 141.888 13.0359 143.537 11.2328C145.186 9.42964 147.339 8.51861 149.997 8.49968C151.133 8.46277 152.26 8.711 153.276 9.22169C154.292 9.73239 155.164 10.4893 155.812 11.4234V9.03495H160.142V28.2275L155.812 28.2234ZM150.682 12.0032C149.958 11.9688 149.236 12.1059 148.575 12.4033C147.914 12.7006 147.333 13.1499 146.878 13.7145C145.962 14.8255 145.504 16.3935 145.504 18.4183C145.504 20.2918 145.858 21.7489 146.566 22.7897C147.402 24.0548 148.753 24.6874 150.621 24.6874C152.268 24.6874 153.56 24.1467 154.498 23.0654C155.385 21.903 155.828 20.358 155.828 18.4305C155.828 16.4516 155.385 14.881 154.498 13.7185C154.041 13.1525 153.458 12.7016 152.795 12.4023C152.132 12.1029 151.409 11.9635 150.682 11.9951V12.0032Z" fill="#86C6CA"/>
<path d="M173.078 8.49952C176.322 8.49952 178.793 9.58897 180.491 11.7679C182.061 13.7657 182.847 16.5272 182.847 20.0523H168.127C168.278 21.9014 168.772 23.295 169.607 24.2331C170.442 25.1712 171.647 25.6524 173.22 25.6767C174.371 25.7303 175.509 25.4103 176.464 24.7643C177.227 24.1156 177.826 23.2958 178.212 22.3718H182.546C182.132 24.151 181.176 25.7577 179.809 26.9702C177.976 28.4876 175.652 29.2848 173.273 29.2127C170.361 29.2127 168.038 28.3125 166.318 26.512C164.493 24.6629 163.581 22.1042 163.581 18.8358C163.581 15.8973 164.442 13.4521 166.164 11.5003C167.829 9.49707 170.134 8.49681 173.078 8.49952ZM173.192 12.0315C171.748 12.0315 170.621 12.437 169.81 13.248C168.999 14.059 168.466 15.2376 168.212 16.784H178.309C177.933 13.6183 176.223 12.0342 173.179 12.0315H173.192Z" fill="#86C6CA"/>
<path d="M195.527 8.49932C196.378 8.47022 197.225 8.63815 198 8.98999V13.3248C197.088 13.0504 196.139 12.9137 195.186 12.9193C194.609 12.9186 194.039 13.0362 193.509 13.265C192.98 13.4938 192.503 13.8288 192.108 14.2494C191.583 14.7762 191.173 15.4066 190.904 16.1006C190.635 16.7945 190.514 17.5367 190.547 18.2801V28.6934H186.253V9.03459H190.547V11.8447C190.983 10.9502 191.622 10.1698 192.413 9.5658C193.29 8.84907 194.395 8.47067 195.527 8.49932Z" fill="#86C6CA"/>
<path d="M160.143 34.7556V30.4248H155.812V32.1158C155.812 32.6642 155.698 33.2066 155.478 33.7091C155.258 34.2115 154.937 34.6631 154.534 35.0354L153.894 35.6274C153.159 36.3037 152.196 36.6786 151.197 36.6777C150.199 36.6787 149.238 36.3037 148.505 35.6274L147.864 35.0354C147.46 34.6639 147.137 34.2126 146.917 33.71C146.696 33.2075 146.582 32.6646 146.582 32.1158V30.4248H142.26V34.7556H144.425C145.424 34.7519 146.388 35.1239 147.126 35.7977L147.767 36.3898C148.17 36.7616 148.491 37.2131 148.711 37.7156C148.931 38.2182 149.044 38.7609 149.044 39.3094V41.0004H153.375V39.3094C153.375 38.7601 153.489 38.2168 153.71 37.7137C153.93 37.2106 154.253 36.7585 154.656 36.3857L155.297 35.7977C156.03 35.1203 156.991 34.7439 157.989 34.7434L160.143 34.7556Z" fill="#066F69"/>
<path d="M51.4261 5.32456C50.1679 5.85807 49.026 6.63221 48.0645 7.6035C47.095 8.57127 46.3188 9.71493 45.7775 10.9733C45.2288 12.2683 44.9461 13.6604 44.9461 15.0668C44.9461 16.4733 45.2288 17.8653 45.7775 19.1604C46.8628 21.7004 48.8861 23.7238 51.4261 24.8091C52.7226 25.3577 54.116 25.6404 55.5238 25.6404C56.9315 25.6404 58.3249 25.3577 59.6214 24.8091C61.5359 23.9872 63.1712 22.6279 64.3293 20.8959V17.5911C64.3277 17.26 64.3914 16.9319 64.5167 16.6256C64.642 16.3192 64.8265 16.0405 65.0597 15.8055C65.2928 15.5704 65.57 15.3837 65.8754 15.2559C66.1807 15.1281 66.5083 15.0618 66.8394 15.0607H66.8921V27.6314H66.8353C66.5029 27.6324 66.1736 27.5677 65.8663 27.4409C65.5591 27.314 65.28 27.1276 65.0451 26.8924C64.8103 26.6572 64.6243 26.3778 64.498 26.0703C64.3716 25.7629 64.3074 25.4334 64.309 25.101V24.8253C63.1226 25.8851 61.7598 26.7292 60.2824 27.3192C57.1007 28.5658 53.5583 28.5221 50.4083 27.1975C48.8412 26.5296 47.4176 25.5658 46.2154 24.3589C45.0158 23.1523 44.053 21.7315 43.3769 20.1701C42.6944 18.5581 42.3428 16.8254 42.3428 15.0749C42.3428 13.3244 42.6944 11.5918 43.3769 9.97977C44.7292 6.81424 47.2551 4.29557 50.4245 2.95237C52.0386 2.27794 53.7704 1.93066 55.5197 1.93066C57.269 1.93066 59.0008 2.27794 60.6149 2.95237C62.18 3.62388 63.603 4.58721 64.8078 5.7909C65.6186 6.59982 66.3193 7.51193 66.8921 8.50373L66.6366 8.65376C66.1308 8.94299 65.5412 9.05032 64.9659 8.95789C64.3867 8.86139 63.8599 8.56426 63.4777 8.11849C63.3196 7.94413 63.1533 7.77383 62.979 7.59946C62.019 6.62829 60.8784 5.85413 59.6214 5.32053C58.3236 4.77727 56.9307 4.49749 55.5238 4.49749C54.1168 4.49749 52.7239 4.77727 51.4261 5.32053V5.32456Z" fill="#066F69"/>
<path d="M55.5182 1.93837C57.2687 1.92423 59.0035 2.26926 60.6154 2.95213C62.1805 3.62364 63.6035 4.58697 64.8083 5.79066C65.6191 6.59958 66.3199 7.51169 66.8926 8.50349L66.6372 8.65352C66.2504 8.87016 65.8153 8.98592 65.372 8.9901C65.2362 8.98937 65.1007 8.97852 64.9665 8.95765C64.3873 8.86115 63.8605 8.56401 63.4783 8.11825C63.3201 7.94389 63.1539 7.77359 62.9795 7.59922C62.0195 6.62805 60.8789 5.85389 59.6219 5.32029C58.3241 4.77703 56.9312 4.49725 55.5243 4.49725C54.1174 4.49725 52.7245 4.77703 51.4267 5.32029C50.1684 5.85379 49.0265 6.62793 48.0651 7.59922C47.0956 8.56699 46.3194 9.71063 45.778 10.969C45.2294 12.264 44.9467 13.6561 44.9467 15.0625C44.9467 16.469 45.2294 17.8611 45.778 19.1561C46.8625 21.6976 48.8859 23.7226 51.4267 24.8088C52.7231 25.3574 54.1166 25.6401 55.5243 25.6401C56.9321 25.6401 58.3255 25.3574 59.6219 24.8088C61.5365 23.9869 63.1717 22.6277 64.3298 20.8957V17.5908C64.3282 17.2598 64.3919 16.9317 64.5172 16.6253C64.6426 16.3189 64.8271 16.0402 65.0602 15.8052C65.2934 15.5702 65.5705 15.3835 65.8759 15.2557C66.1813 15.1279 66.5089 15.0616 66.8399 15.0605H66.8926V27.6311H66.8359C66.5035 27.6322 66.1741 27.5675 65.8669 27.4406C65.5596 27.3138 65.2805 27.1274 65.0457 26.8922C64.8108 26.6569 64.6249 26.3775 64.4985 26.0701C64.3722 25.7626 64.308 25.4332 64.3096 25.1008V24.825C63.1231 25.8849 61.7603 26.7289 60.2829 27.3189C57.1013 28.5656 53.5588 28.5219 50.4089 27.1972C48.8418 26.5293 47.4182 25.5656 46.2159 24.3587C45.0164 23.152 44.0536 21.7312 43.3774 20.1699C42.695 18.5579 42.3433 16.8252 42.3433 15.0747C42.3433 13.3242 42.695 11.5915 43.3774 9.97953C44.7297 6.814 47.2557 4.29533 50.4251 2.95213C52.0349 2.26614 53.7684 1.91831 55.5182 1.93025M55.5182 1.24091C53.6747 1.23114 51.8488 1.59963 50.1534 2.3236C46.8408 3.73874 44.1997 6.37406 42.7773 9.6835C42.0575 11.3819 41.6865 13.2077 41.6865 15.0524C41.6865 16.897 42.0575 18.7229 42.7773 20.4213C43.482 22.0704 44.4903 23.5725 45.7496 24.8494C47.016 26.1151 48.512 27.128 50.1575 27.8339C53.4762 29.2271 57.2072 29.2722 60.5586 27.9596C61.7129 27.4963 62.8031 26.8871 63.8027 26.147C63.9621 26.6144 64.2287 27.0379 64.5813 27.3838C64.8771 27.686 65.2313 27.9249 65.6224 28.086C66.0135 28.247 66.4332 28.3268 66.8561 28.3205H67.582V14.3752H66.8359C65.9855 14.3784 65.1711 14.7188 64.5713 15.3216C63.9716 15.9244 63.6353 16.7405 63.6364 17.5908V20.6848C63.2944 21.1729 62.9104 21.6301 62.4888 22.0514C61.5857 22.9546 60.5174 23.676 59.3421 24.1762C58.1321 24.6875 56.8318 24.9509 55.5182 24.9509C54.2046 24.9509 52.9044 24.6875 51.6943 24.1762C50.519 23.676 49.4508 22.9546 48.5476 22.0514C47.6375 21.1434 46.9094 20.0699 46.4025 18.8885C45.8912 17.6798 45.6278 16.3809 45.6278 15.0686C45.6278 13.7563 45.8912 12.4574 46.4025 11.2488C46.9115 10.0697 47.6394 8.99782 48.5476 8.08987C49.4461 7.18085 50.5137 6.45627 51.6903 5.95691C52.9031 5.45099 54.2041 5.19052 55.5182 5.19052C56.8323 5.19052 58.1334 5.45099 59.3462 5.95691C60.5223 6.45534 61.5898 7.17848 62.4888 8.08581C62.6632 8.26423 62.8214 8.42645 62.9714 8.58865C63.2687 8.93236 63.6368 9.20776 64.0504 9.39602C64.4641 9.58429 64.9135 9.68098 65.3679 9.67946C65.9248 9.68055 66.4729 9.54107 66.9616 9.27396L67.2292 9.11986L67.8334 8.77517L67.4847 8.17503C65.9729 5.56981 63.6583 3.52408 60.8871 2.34387C59.1903 1.6199 57.363 1.25143 55.5182 1.26118V1.24091Z" fill="#066F69"/>
<path d="M0.685547 27.6151V2.51025H19.7726V2.54676C19.7743 2.8795 19.7099 3.20926 19.5833 3.51699C19.4567 3.82471 19.2704 4.10429 19.0351 4.33958C18.7998 4.57486 18.5202 4.7612 18.2125 4.88779C17.9048 5.01438 17.575 5.07872 17.2423 5.0771H3.25239V13.7711H16.3664V13.8076C16.3675 14.14 16.3027 14.4693 16.1759 14.7766C16.0491 15.0838 15.8627 15.363 15.6274 15.5978C15.3922 15.8327 15.1128 16.0186 14.8053 16.145C14.4979 16.2713 14.1685 16.3355 13.8361 16.3339H3.25239V25.0482H17.2423C17.5757 25.0418 17.9068 25.1041 18.2151 25.231C18.5235 25.358 18.8024 25.547 19.0346 25.7862C19.2714 26.0161 19.4589 26.2918 19.5858 26.5964C19.7127 26.901 19.7762 27.2283 19.7726 27.5583V27.6151H0.685547Z" fill="#066F69"/>
<path d="M19.7724 2.51014V2.54665C19.774 2.87939 19.7097 3.20915 19.5831 3.51687C19.4565 3.82459 19.2702 4.10418 19.0349 4.33946C18.7996 4.57475 18.52 4.76109 18.2123 4.88768C17.9046 5.01427 17.5748 5.0786 17.2421 5.07699H3.25215V13.771H16.3662V13.8075C16.3672 14.1399 16.3025 14.4692 16.1757 14.7765C16.0488 15.0837 15.8624 15.3629 15.6272 15.5977C15.392 15.8326 15.1126 16.0185 14.8051 16.1449C14.4976 16.2712 14.1682 16.3354 13.8358 16.3338H3.25215V25.0481H17.2421C17.5754 25.0417 17.9066 25.104 18.2149 25.2309C18.5232 25.3579 18.8021 25.5468 19.0344 25.7861C19.2711 26.016 19.4587 26.2916 19.5855 26.5963C19.7124 26.9009 19.776 27.2282 19.7724 27.5582V27.6149H0.685304V2.51014H19.7724ZM20.4577 1.8208H0V28.3002H20.4577V27.5582C20.4572 27.137 20.3735 26.72 20.2115 26.3313C20.0494 25.9425 19.8122 25.5896 19.5135 25.2927C19.2147 24.9958 18.8603 24.7609 18.4705 24.6013C18.0807 24.4417 17.6632 24.3606 17.2421 24.3628H3.9415V17.0232H13.8358C14.2586 17.0242 14.6774 16.9418 15.0683 16.7806C15.4591 16.6195 15.8143 16.3827 16.1134 16.0839C16.4126 15.7852 16.6498 15.4303 16.8114 15.0396C16.9731 14.649 17.0561 14.2303 17.0555 13.8075V13.0898H3.9415V5.76229H17.2421C17.6648 5.7639 18.0837 5.68184 18.4745 5.52081C18.8654 5.35978 19.2205 5.12297 19.5195 4.82404C19.8184 4.52512 20.0552 4.16999 20.2162 3.77912C20.3772 3.38826 20.4593 2.96938 20.4577 2.54665V1.8208Z" fill="#066F69"/>
<path d="M19.7724 2.51014V2.54665C19.774 2.87939 19.7097 3.20915 19.5831 3.51687C19.4565 3.82459 19.2702 4.10418 19.0349 4.33946C18.7996 4.57475 18.52 4.76109 18.2123 4.88768C17.9046 5.01427 17.5748 5.0786 17.2421 5.07699H3.25215V13.771H16.3662V13.8075C16.3672 14.1399 16.3025 14.4692 16.1757 14.7765C16.0488 15.0837 15.8624 15.3629 15.6272 15.5977C15.392 15.8326 15.1126 16.0185 14.8051 16.1449C14.4976 16.2712 14.1682 16.3354 13.8358 16.3338H3.25215V25.0481H17.2421C17.5754 25.0417 17.9066 25.104 18.2149 25.2309C18.5232 25.3579 18.8021 25.5468 19.0344 25.7861C19.2711 26.016 19.4587 26.2916 19.5855 26.5963C19.7124 26.9009 19.776 27.2282 19.7724 27.5582V27.6149H0.685304V2.51014H19.7724ZM20.4577 1.8208H0V28.3002H20.4577V27.5582C20.4572 27.137 20.3735 26.72 20.2115 26.3313C20.0494 25.9425 19.8122 25.5896 19.5135 25.2927C19.2147 24.9958 18.8603 24.7609 18.4705 24.6013C18.0807 24.4417 17.6632 24.3606 17.2421 24.3628H3.9415V17.0232H13.8358C14.2586 17.0242 14.6774 16.9418 15.0683 16.7806C15.4591 16.6195 15.8143 16.3827 16.1134 16.0839C16.4126 15.7852 16.6498 15.4303 16.8114 15.0396C16.9731 14.649 17.0561 14.2303 17.0555 13.8075V13.0898H3.9415V5.76229H17.2421C17.6648 5.7639 18.0837 5.68184 18.4745 5.52081C18.8654 5.35978 19.2205 5.12297 19.5195 4.82404C19.8184 4.52512 20.0552 4.16999 20.2162 3.77912C20.3772 3.38826 20.4593 2.96938 20.4577 2.54665V1.8208Z" fill="#066F69"/>
<path d="M34.8004 5.92434C34.5782 5.68058 34.3277 5.46413 34.0543 5.27958C33.273 4.75655 32.3505 4.48489 31.4104 4.50102C30.2905 4.47533 29.2019 4.87196 28.361 5.6121C27.9624 5.93052 27.6405 6.33463 27.4194 6.79443C27.1983 7.25423 27.0835 7.75793 27.0837 8.26815C27.0517 9.08652 27.3199 9.88836 27.8379 10.5228C28.3886 11.1457 29.0499 11.6612 29.7884 12.0434C30.6122 12.4807 31.4597 12.8719 32.3268 13.2153C33.2352 13.5965 34.1273 14.002 34.991 14.4318C35.8301 14.8425 36.6181 15.3501 37.3389 15.9443C38.0345 16.5248 38.6008 17.2445 39.0014 18.057C39.4389 19.0082 39.6499 20.0478 39.6178 21.0943C39.6239 22.0544 39.4059 23.0028 38.9812 23.8639C38.5487 24.7319 37.946 25.5042 37.2091 26.1347C35.5851 27.4961 33.5295 28.235 31.4104 28.219C29.6425 28.2472 27.9086 27.732 26.443 26.7429C25.0332 25.8627 23.9737 24.5194 23.4463 22.9434L24.0221 22.8136C24.2816 22.7657 24.5449 22.7413 24.8088 22.7406C25.2483 22.7355 25.6837 22.8253 26.0854 23.0037C26.4871 23.1822 26.8455 23.4451 27.1364 23.7746C27.443 24.1396 27.8025 24.4567 28.2029 24.7154C29.1393 25.3481 30.248 25.6766 31.378 25.6562C32.7401 25.6904 34.065 25.2096 35.0883 24.3099C35.5687 23.9242 35.956 23.4351 36.2214 22.8791C36.4867 22.3231 36.6234 21.7144 36.6211 21.0983C36.6632 20.1624 36.3762 19.2414 35.8101 18.495C35.2297 17.7927 34.5157 17.2125 33.7096 16.7878C32.8321 16.3137 31.9276 15.8913 31.0008 15.5226C30.1209 15.1536 29.2693 14.7684 28.4543 14.3588C27.665 13.9719 26.9211 13.4986 26.2362 12.9477C25.5813 12.4214 25.0475 11.7603 24.6709 11.0094C24.265 10.154 24.0677 9.21455 24.0951 8.26815C24.0894 7.41765 24.2824 6.57758 24.6587 5.81485C25.0399 5.0413 25.5721 4.35191 26.224 3.78733C27.6548 2.54903 29.4943 1.88577 31.3861 1.92605C32.9636 1.90135 34.5112 2.35828 35.8223 3.23585C37.06 4.0258 37.9868 5.21905 38.4459 6.61371L37.8052 6.75968C37.5392 6.821 37.2672 6.85228 36.9942 6.85294C36.5847 6.85469 36.1791 6.7733 35.8021 6.61368C35.425 6.45406 35.0842 6.21955 34.8004 5.92434Z" fill="#066F69"/>
<path d="M31.3898 1.93821C32.9673 1.91352 34.5149 2.37042 35.826 3.24799C37.0637 4.03794 37.9905 5.23119 38.4497 6.62585L37.809 6.77182C37.543 6.83314 37.2709 6.86444 36.9979 6.8651C36.5835 6.86861 36.1728 6.78691 35.7912 6.62508C35.4096 6.46325 35.0654 6.22473 34.7798 5.92433C34.5576 5.68057 34.3071 5.46412 34.0337 5.27957C33.2524 4.75654 32.3299 4.48488 31.3898 4.50101C30.2699 4.47532 29.1813 4.87195 28.3404 5.61208C27.9418 5.93051 27.62 6.33461 27.3988 6.79442C27.1777 7.25422 27.0629 7.75792 27.0631 8.26813C27.0311 9.0865 27.2994 9.88834 27.8173 10.5227C28.3681 11.1457 29.0294 11.6612 29.7678 12.0434C30.5916 12.4807 31.4391 12.8719 32.3063 13.2153C33.2146 13.5965 34.1067 14.002 34.9704 14.4318C35.8095 14.8425 36.5975 15.3501 37.3183 15.9443C38.0139 16.5248 38.5803 17.2444 38.9809 18.057C39.4183 19.0082 39.6293 20.0478 39.5972 21.0942C39.6033 22.0544 39.3854 23.0027 38.9606 23.8638C38.5281 24.7319 37.9255 25.5042 37.1885 26.1347C35.5645 27.4961 33.5089 28.235 31.3898 28.219C29.6219 28.2472 27.888 27.732 26.4224 26.7429C25.0202 25.8592 23.9683 24.5163 23.446 22.9433L24.0218 22.8136C24.2813 22.7657 24.5446 22.7413 24.8085 22.7406C25.248 22.7355 25.6834 22.8253 26.0851 23.0037C26.4868 23.1822 26.8452 23.4451 27.1361 23.7746C27.4427 24.1396 27.8022 24.4567 28.2026 24.7154C29.139 25.348 30.2477 25.6766 31.3777 25.6562C32.7398 25.6904 34.0647 25.2096 35.088 24.3099C35.5684 23.9242 35.9557 23.4351 36.2211 22.8791C36.4864 22.3231 36.6231 21.7144 36.6208 21.0983C36.6629 20.1624 36.3759 19.2414 35.8098 18.495C35.2294 17.7927 34.5154 17.2124 33.7093 16.7878C32.8318 16.3137 31.9273 15.8912 31.0005 15.5226C30.1206 15.1536 29.269 14.7684 28.454 14.3588C27.6647 13.9719 26.9208 13.4986 26.2359 12.9477C25.581 12.4214 25.0472 11.7603 24.6706 11.0093C24.2647 10.154 24.0674 9.21454 24.0948 8.26813C24.0891 7.41764 24.2821 6.57757 24.6584 5.81484C25.0396 5.04129 25.5718 4.3519 26.2237 3.78731C27.6545 2.54902 29.494 1.88576 31.3858 1.92604M31.3858 1.2367C29.3302 1.19685 27.3325 1.91906 25.7776 3.26422C25.054 3.88238 24.4635 4.64116 24.0421 5.4945C23.6196 6.35207 23.4017 7.29592 23.4054 8.25192C23.3636 9.25369 23.5597 10.2511 23.9776 11.1625C24.3956 12.0739 25.0236 12.8732 25.8101 13.4951C26.5338 14.0776 27.3199 14.5781 28.1539 14.9873C28.9649 15.3929 29.8449 15.7984 30.741 16.1674C31.6454 16.5284 32.5281 16.9414 33.3849 17.4042C34.112 17.7856 34.7557 18.308 35.2786 18.941C35.7505 19.5626 35.9875 20.3311 35.9477 21.1105C35.9491 21.6282 35.8331 22.1395 35.6084 22.6059C35.3836 23.0723 35.0559 23.4816 34.6501 23.803C33.7563 24.5915 32.5975 25.013 31.406 24.983C30.4145 25.0081 29.4397 24.7247 28.6162 24.172C28.2691 23.9496 27.9574 23.6762 27.6916 23.361C27.3358 22.9611 26.8982 22.6423 26.4085 22.4261C25.9188 22.21 25.3883 22.1015 24.8531 22.108C24.5484 22.1089 24.2443 22.1375 23.9448 22.1932H23.9164L23.3406 22.3229L22.6025 22.4892L22.8377 23.2069C23.4071 24.9263 24.5531 26.3961 26.0818 27.3674C27.6552 28.4041 29.5058 28.94 31.3898 28.9043C33.6727 28.9199 35.8866 28.1221 37.6346 26.6537C38.4416 25.9616 39.102 25.1151 39.577 24.1639C40.0479 23.208 40.2908 22.1558 40.2866 21.0902C40.3175 19.9381 40.0816 18.7946 39.5972 17.7488C39.1537 16.8501 38.5265 16.0544 37.7562 15.4131C36.997 14.777 36.1653 14.2326 35.2786 13.7911C34.4068 13.3572 33.4944 12.9395 32.5739 12.5746C31.7261 12.2396 30.8976 11.8579 30.0922 11.4311C29.4297 11.0882 28.8359 10.6263 28.3404 10.0686C27.9282 9.55861 27.7175 8.91506 27.7484 8.26004C27.7487 7.84814 27.8427 7.44169 28.0233 7.07147C28.2038 6.70125 28.4662 6.37693 28.7905 6.12302C29.5056 5.48996 30.4352 5.1535 31.3898 5.18225C32.1923 5.1644 32.9808 5.39373 33.6485 5.83917C33.8773 5.99664 34.0881 6.17888 34.277 6.38255C34.6262 6.74736 35.0462 7.03697 35.5113 7.23361C35.9764 7.43025 36.4768 7.52978 36.9817 7.52608C37.3037 7.52423 37.6246 7.48752 37.9387 7.41658L38.5875 7.26655L39.3174 7.09622L39.0863 6.38255C38.5786 4.84218 37.5562 3.52345 36.191 2.64785C34.7666 1.69559 33.0868 1.19787 31.3736 1.22046L31.3858 1.2367Z" fill="#066F69"/>
</g>
<defs>
<clipPath id="clip0_1109_118">
<rect width="198" height="42" fill="white"/>
</clipPath>
</defs>
</svg>
