<svg xmlns="http://www.w3.org/2000/svg" width="208" height="43" viewBox="0 0 208 43" fill="none">
  <path d="M79.0752 0.558105H83.7099V25.0735H99.1178V29.0693H79.0752V0.558105Z" fill="#86C6CA"/>
  <path d="M111.105 7.86817C114.513 7.86817 117.109 9.01265 118.892 11.3016C120.542 13.4003 121.367 16.3012 121.367 20.0045H105.908C106.067 21.947 106.586 23.4109 107.463 24.3964C108.345 25.406 109.593 25.9129 111.259 25.9129C112.468 25.9674 113.663 25.6314 114.667 24.9544C115.467 24.2725 116.094 23.4114 116.498 22.4411H121.052C120.618 24.3108 119.614 25.9991 118.177 27.2718C116.251 28.8661 113.809 29.7036 111.31 29.6275C108.251 29.6275 105.816 28.6818 104.004 26.7904C102.087 24.8479 101.129 22.1599 101.129 18.7265C101.129 15.6395 102.035 13.0709 103.847 11.0205C105.593 8.9161 108.013 7.86533 111.105 7.86817ZM111.225 11.5785C109.708 11.5785 108.524 12.0045 107.672 12.8565C106.82 13.7084 106.261 14.9466 105.994 16.571H116.609C116.212 13.2455 114.414 11.5813 111.216 11.5785H111.225Z" fill="#86C6CA"/>
  <path d="M139.646 0H144.196V29.0692H139.966V26.8711C138.526 28.7085 136.449 29.6272 133.734 29.6272C130.65 29.6272 128.254 28.5495 126.547 26.394C124.954 24.4061 124.156 21.8232 124.153 18.6453C124.153 15.5868 124.939 13.072 126.509 11.1012C128.187 8.94567 130.516 7.86792 133.495 7.86792C135.892 7.86792 137.942 9.00388 139.646 11.2758V0ZM134.573 11.5399C132.525 11.5399 131.022 12.2187 130.062 13.5761C129.24 14.722 128.822 16.4089 128.822 18.6453C128.822 20.8817 129.21 22.624 129.981 23.7955C130.887 25.2353 132.365 25.9538 134.415 25.951C135.226 25.9823 136.031 25.8025 136.752 25.4292C137.473 25.0558 138.084 24.5017 138.526 23.821C139.428 22.332 139.872 20.6107 139.804 18.8711V18.5516C139.804 16.3677 139.273 14.624 138.211 13.3205C137.787 12.7587 137.237 12.3047 136.605 11.9953C135.973 11.6859 135.277 11.5299 134.573 11.5399Z" fill="#86C6CA"/>
  <path d="M163.681 28.5879V25.393C163.015 26.3985 162.106 27.219 161.038 27.7777C159.97 28.3364 158.777 28.6152 157.572 28.5879C154.777 28.5879 152.516 27.6564 150.786 25.7935C149.057 23.9305 148.19 21.4285 148.188 18.2876C148.188 15.1495 149.054 12.6334 150.786 10.7392C152.518 8.84495 154.78 7.88791 157.572 7.86803C158.766 7.82925 159.95 8.09001 161.017 8.6265C162.084 9.16299 163 9.95814 163.681 10.9394V8.43033H168.23V28.5922L163.681 28.5879ZM158.292 11.5485C157.531 11.5124 156.773 11.6564 156.079 11.9688C155.384 12.2811 154.774 12.7531 154.296 13.3462C153.333 14.5134 152.852 16.1605 152.852 18.2876C152.852 20.2557 153.224 21.7864 153.968 22.8797C154.846 24.2088 156.266 24.8733 158.228 24.8733C159.957 24.8733 161.315 24.3053 162.3 23.1694C163.232 21.9482 163.698 20.3252 163.698 18.3004C163.698 16.2216 163.232 14.5716 162.3 13.3504C161.821 12.7558 161.208 12.2822 160.512 11.9677C159.816 11.6533 159.055 11.5068 158.292 11.54V11.5485Z" fill="#86C6CA"/>
  <path d="M181.819 7.86817C185.227 7.86817 187.823 9.01265 189.606 11.3016C191.256 13.4003 192.081 16.3012 192.081 20.0045H176.618C176.777 21.947 177.295 23.4109 178.173 24.3964C179.05 25.3818 180.316 25.8873 181.968 25.9129C183.178 25.9692 184.373 25.633 185.376 24.9544C186.178 24.2729 186.807 23.4118 187.212 22.4411H191.766C191.331 24.3102 190.326 25.998 188.891 27.2718C186.964 28.8657 184.523 29.7032 182.024 29.6275C178.965 29.6275 176.524 28.6818 174.718 26.7904C172.801 24.8479 171.843 22.1599 171.843 18.7265C171.843 15.6395 172.747 13.0709 174.556 11.0205C176.306 8.9161 178.727 7.86533 181.819 7.86817ZM181.939 11.5785C180.422 11.5785 179.238 12.0045 178.386 12.8565C177.534 13.7084 176.974 14.9466 176.708 16.571H187.315C186.92 13.2455 185.124 11.5813 181.926 11.5785H181.939Z" fill="#86C6CA"/>
  <path d="M205.401 7.86765C206.296 7.83708 207.185 8.01349 208 8.3831V12.9369C207.041 12.6486 206.045 12.505 205.044 12.5109C204.438 12.5101 203.838 12.6337 203.282 12.874C202.726 13.1144 202.225 13.4663 201.81 13.9081C201.258 14.4616 200.827 15.1238 200.545 15.8528C200.263 16.5817 200.135 17.3615 200.17 18.1424V29.0817H195.659V8.42995H200.17V11.382C200.628 10.4423 201.299 9.62246 202.13 8.98799C203.051 8.23506 204.212 7.83755 205.401 7.86765Z" fill="#86C6CA"/>
  <path d="M168.23 35.4504V30.9009H163.681V32.6772C163.681 33.2533 163.561 33.8232 163.33 34.351C163.099 34.8788 162.762 35.3532 162.339 35.7443L161.666 36.3663C160.894 37.0766 159.882 37.4705 158.833 37.4696C157.785 37.4707 156.775 37.0767 156.004 36.3663L155.331 35.7443C154.907 35.3541 154.568 34.88 154.337 34.352C154.105 33.8241 153.985 33.2538 153.985 32.6772V30.9009H149.444V35.4504H151.719C152.769 35.4465 153.781 35.8373 154.556 36.5452L155.229 37.1671C155.653 37.5578 155.991 38.032 156.222 38.5599C156.453 39.0879 156.572 39.658 156.571 40.2342V42.0106H161.121V40.2342C161.121 39.6571 161.241 39.0864 161.473 38.5579C161.704 38.0294 162.043 37.5544 162.467 37.1629L163.14 36.5452C163.91 35.8335 164.92 35.4381 165.968 35.4376L168.23 35.4504Z" fill="white"/>
  <path d="M54.0236 4.53259C52.7018 5.09304 51.5022 5.90628 50.4922 6.92662C49.4737 7.94327 48.6583 9.1447 48.0896 10.4666C47.5133 11.827 47.2163 13.2894 47.2163 14.7669C47.2163 16.2444 47.5133 17.7067 48.0896 19.0672C49.2297 21.7355 51.3553 23.8611 54.0236 25.0012C55.3855 25.5775 56.8493 25.8744 58.3281 25.8744C59.807 25.8744 61.2708 25.5775 62.6327 25.0012C64.6439 24.1377 66.3618 22.7099 67.5784 20.8904V17.4186C67.5767 17.0709 67.6436 16.7262 67.7753 16.4043C67.9069 16.0825 68.1007 15.7897 68.3457 15.5428C68.5906 15.2959 68.8818 15.0998 69.2026 14.9655C69.5234 14.8313 69.8675 14.7616 70.2152 14.7605H70.2706V27.966H70.211C69.8618 27.9671 69.5158 27.8991 69.1931 27.7659C68.8703 27.6326 68.5771 27.4368 68.3304 27.1897C68.0837 26.9426 67.8883 26.6491 67.7556 26.3261C67.6229 26.0031 67.5554 25.6571 67.5571 25.3079V25.0182C66.3107 26.1316 64.8791 27.0182 63.3271 27.638C59.9847 28.9476 56.2634 28.9018 52.9543 27.5102C51.3081 26.8086 49.8126 25.7961 48.5497 24.5283C47.2895 23.2607 46.2781 21.7681 45.5678 20.1279C44.8509 18.4345 44.4814 16.6143 44.4814 14.7754C44.4814 12.9365 44.8509 11.1163 45.5678 9.42291C46.9884 6.0975 49.6419 3.45163 52.9714 2.04059C54.6669 1.3321 56.4863 0.967285 58.3239 0.967285C60.1615 0.967285 61.9808 1.3321 63.6764 2.04059C65.3205 2.74602 66.8154 3.758 68.0811 5.02248C68.9328 5.87226 69.669 6.83043 70.2706 7.87232L70.0022 8.02993C69.4709 8.33377 68.8515 8.44651 68.2472 8.34942C67.6387 8.24805 67.0853 7.93591 66.6838 7.46763C66.5177 7.28446 66.343 7.10556 66.1599 6.92239C65.1514 5.90216 63.9532 5.0889 62.6327 4.52835C61.2693 3.95766 59.8061 3.66375 58.3281 3.66375C56.8502 3.66375 55.3869 3.95766 54.0236 4.52835V4.53259Z" fill="white"/>
  <path d="M58.3223 0.975556C60.1612 0.960703 61.9836 1.32316 63.6769 2.04052C65.3211 2.74594 66.8159 3.75792 68.0816 5.02241C68.9333 5.87218 69.6695 6.83036 70.2711 7.87225L70.0028 8.02986C69.5965 8.25744 69.1394 8.37905 68.6737 8.38343C68.5311 8.38267 68.3887 8.37127 68.2477 8.34935C67.6393 8.24798 67.0858 7.93583 66.6843 7.46756C66.5182 7.28438 66.3435 7.10548 66.1604 6.92231C65.1519 5.90209 63.9537 5.08883 62.6332 4.52828C61.2699 3.95759 59.8066 3.66367 58.3287 3.66367C56.8507 3.66367 55.3874 3.95759 54.0241 4.52828C52.7023 5.08873 51.5027 5.90197 50.4927 6.92231C49.4742 7.93896 48.6588 9.14036 48.0901 10.4622C47.5138 11.8227 47.2168 13.2851 47.2168 14.7625C47.2168 16.24 47.5138 17.7024 48.0901 19.0629C49.2293 21.7328 51.355 23.86 54.0241 25.0011C55.386 25.5774 56.8498 25.8744 58.3287 25.8744C59.8075 25.8744 61.2713 25.5774 62.6332 25.0011C64.6444 24.1377 66.3623 22.7098 67.5789 20.8903V17.4186C67.5772 17.0708 67.6441 16.7261 67.7758 16.4043C67.9074 16.0824 68.1013 15.7896 68.3462 15.5428C68.5911 15.2959 68.8823 15.0997 69.2031 14.9654C69.5239 14.8312 69.868 14.7615 70.2158 14.7604H70.2711V27.9659H70.2115C69.8623 27.9671 69.5164 27.899 69.1936 27.7658C68.8708 27.6326 68.5776 27.4368 68.3309 27.1896C68.0842 26.9425 67.8888 26.649 67.7561 26.326C67.6234 26.003 67.5559 25.657 67.5576 25.3078V25.0181C66.3113 26.1315 64.8796 27.0182 63.3276 27.6379C59.9853 28.9476 56.2639 28.9017 52.9549 27.5101C51.3086 26.8085 49.8131 25.7961 48.5502 24.5282C47.29 23.2606 46.2786 21.7681 45.5683 20.1278C44.8514 18.4344 44.482 16.6142 44.482 14.7753C44.482 12.9364 44.8514 11.1162 45.5683 9.42284C46.9889 6.09743 49.6424 3.45156 52.9719 2.04052C54.663 1.31988 56.4841 0.954484 58.3223 0.967028M58.3223 0.242875C56.3857 0.232608 54.4675 0.619705 52.6865 1.38025C49.2066 2.86686 46.4321 5.63527 44.9378 9.11185C44.1817 10.896 43.792 12.8141 43.792 14.7519C43.792 16.6897 44.1817 18.6077 44.9378 20.3919C45.6781 22.1244 46.7373 23.7023 48.0603 25.0437C49.3906 26.3734 50.9621 27.4374 52.6907 28.1789C56.1771 29.6425 60.0965 29.6899 63.6172 28.311C64.8298 27.8243 65.9751 27.1844 67.0251 26.4068C67.1926 26.8978 67.4727 27.3428 67.843 27.7061C68.1538 28.0236 68.5259 28.2746 68.9368 28.4437C69.3476 28.6129 69.7885 28.6967 70.2328 28.6901H70.9953V14.0405H70.2115C69.3182 14.0439 68.4627 14.4014 67.8326 15.0347C67.2025 15.6679 66.8493 16.5252 66.8505 17.4186V20.6688C66.4911 21.1815 66.0878 21.6618 65.6449 22.1044C64.6961 23.0532 63.5739 23.811 62.3393 24.3366C61.0681 24.8736 59.7022 25.1503 58.3223 25.1503C56.9423 25.1503 55.5764 24.8736 54.3052 24.3366C53.0706 23.811 51.9484 23.0532 50.9996 22.1044C50.0435 21.1506 49.2786 20.0228 48.7461 18.7817C48.2091 17.512 47.9323 16.1475 47.9323 14.7689C47.9323 13.3904 48.2091 12.0258 48.7461 10.7562C49.2808 9.51758 50.0455 8.39155 50.9996 7.43773C51.9435 6.4828 53.065 5.72163 54.301 5.19705C55.575 4.66558 56.9418 4.39196 58.3223 4.39196C59.7027 4.39196 61.0695 4.66558 62.3436 5.19705C63.579 5.72065 64.7004 6.48032 65.6449 7.43347C65.8281 7.6209 65.9942 7.79132 66.1519 7.96171C66.4642 8.32278 66.8509 8.61208 67.2854 8.80986C67.7199 9.00764 68.192 9.10921 68.6694 9.10761C69.2544 9.10875 69.8302 8.96223 70.3435 8.68163L70.6247 8.51975L71.2594 8.15765L70.8931 7.5272C69.305 4.79041 66.8735 2.64135 63.9623 1.40154C62.1798 0.641008 60.2602 0.253923 58.3223 0.264169V0.242875Z" fill="white"/>
  <path d="M0.719727 27.9489V1.57617H20.7708V1.61452C20.7725 1.96407 20.7049 2.31048 20.5719 2.63375C20.4389 2.95701 20.2432 3.25072 19.996 3.49789C19.7489 3.74506 19.4552 3.9408 19.1319 4.07379C18.8086 4.20677 18.4622 4.27435 18.1127 4.27266H3.41621V13.4058H17.1926V13.4441C17.1937 13.7933 17.1257 14.1393 16.9924 14.462C16.8592 14.7848 16.6634 15.078 16.4163 15.3247C16.1691 15.5714 15.8756 15.7668 15.5526 15.8995C15.2297 16.0322 14.8836 16.0997 14.5344 16.098H3.41621V25.2524H18.1127C18.4629 25.2457 18.8107 25.3111 19.1346 25.4445C19.4585 25.5778 19.7516 25.7763 19.9955 26.0277C20.2442 26.2692 20.4412 26.5588 20.5745 26.8788C20.7078 27.1988 20.7746 27.5426 20.7708 27.8892V27.9489H0.719727Z" fill="white"/>
  <path d="M20.771 1.5762V1.61455C20.7727 1.9641 20.7051 2.31052 20.5721 2.63378C20.4391 2.95705 20.2434 3.25075 19.9962 3.49792C19.7491 3.74509 19.4554 3.94083 19.1321 4.07382C18.8088 4.2068 18.4624 4.27439 18.1129 4.27269H3.4164V13.4058H17.1927V13.4442C17.1939 13.7933 17.1259 14.1393 16.9926 14.4621C16.8594 14.7848 16.6636 15.078 16.4164 15.3248C16.1693 15.5715 15.8758 15.7668 15.5528 15.8995C15.2298 16.0323 14.8838 16.0997 14.5346 16.098H3.4164V25.2524H18.1129C18.4631 25.2457 18.8109 25.3111 19.1348 25.4445C19.4587 25.5779 19.7518 25.7764 19.9957 26.0277C20.2444 26.2692 20.4414 26.5588 20.5747 26.8788C20.708 27.1988 20.7748 27.5426 20.771 27.8893V27.9489H0.719915V1.5762H20.771ZM21.4909 0.852051H0V28.6688H21.4909V27.8893C21.4904 27.4468 21.4025 27.0088 21.2322 26.6004C21.062 26.192 20.8128 25.8213 20.499 25.5094C20.1851 25.1975 19.8128 24.9507 19.4033 24.7831C18.9939 24.6154 18.5553 24.5303 18.1129 24.5325H4.14057V16.8222H14.5346C14.9787 16.8233 15.4187 16.7367 15.8293 16.5674C16.2399 16.3981 16.613 16.1494 16.9273 15.8356C17.2415 15.5217 17.4907 15.1489 17.6605 14.7385C17.8303 14.3281 17.9175 13.8883 17.9169 13.4442V12.6902H4.14057V4.99261H18.1129C18.557 4.9943 18.997 4.90809 19.4076 4.73893C19.8182 4.56976 20.1913 4.32099 20.5053 4.00697C20.8193 3.69295 21.0681 3.31989 21.2372 2.90928C21.4064 2.49867 21.4926 2.05864 21.4909 1.61455V0.852051Z" fill="white"/>
  <path d="M36.5584 5.16298C36.325 4.90691 36.0618 4.67953 35.7746 4.48566C34.9539 3.93622 33.9847 3.65084 32.9972 3.66777C31.8207 3.64079 30.6771 4.05746 29.7938 4.83497C29.375 5.16948 29.0369 5.59399 28.8046 6.07702C28.5723 6.56004 28.4518 7.08918 28.4519 7.62516C28.4183 8.48487 28.7001 9.3272 29.2443 9.99364C29.8228 10.648 30.5175 11.1896 31.2933 11.5911C32.1587 12.0504 33.0489 12.4614 33.9599 12.8222C34.9141 13.2226 35.8513 13.6486 36.7586 14.1001C37.6401 14.5315 38.4679 15.0648 39.2251 15.689C39.9558 16.2988 40.5508 17.0548 40.9716 17.9084C41.4312 18.9076 41.6528 19.9998 41.6191 21.0991C41.6255 22.1077 41.3965 23.1039 40.9503 24.0085C40.496 24.9205 39.8629 25.7317 39.0888 26.394C37.3828 27.8242 35.2233 28.6004 32.9972 28.5836C31.14 28.6133 29.3185 28.0721 27.7789 27.033C26.2979 26.1084 25.1849 24.6972 24.6309 23.0415L25.2358 22.9052C25.5084 22.855 25.785 22.8293 26.0622 22.8286C26.5239 22.8232 26.9813 22.9175 27.4032 23.105C27.8252 23.2924 28.2018 23.5686 28.5073 23.9148C28.8295 24.2982 29.2071 24.6313 29.6277 24.9031C30.6114 25.5677 31.7761 25.9128 32.9631 25.8914C34.3941 25.9273 35.7859 25.4223 36.8609 24.4771C37.3655 24.0719 37.7724 23.5581 38.0511 22.9741C38.3299 22.39 38.4735 21.7505 38.4711 21.1033C38.5152 20.1202 38.2138 19.1526 37.6191 18.3685C37.0093 17.6308 36.2593 17.0212 35.4125 16.5751C34.4907 16.0771 33.5405 15.6333 32.567 15.246C31.6426 14.8584 30.748 14.4537 29.8918 14.0235C29.0626 13.617 28.2811 13.1198 27.5616 12.541C26.8737 11.9882 26.3129 11.2937 25.9173 10.5048C25.4909 9.60624 25.2836 8.61937 25.3124 7.62516C25.3065 6.73171 25.5092 5.84921 25.9046 5.04796C26.305 4.23535 26.8641 3.51114 27.5489 2.91804C29.0519 1.6172 30.9843 0.920449 32.9716 0.962757C34.6288 0.936814 36.2546 1.41682 37.6319 2.33871C38.9321 3.16856 39.9057 4.42207 40.388 5.88716L39.715 6.04051C39.4355 6.10493 39.1498 6.13779 38.863 6.13848C38.4328 6.14032 38.0068 6.05482 37.6106 5.88714C37.2145 5.71946 36.8565 5.4731 36.5584 5.16298Z" fill="white"/>
  <path d="M32.9752 0.975478C34.6324 0.949534 36.2581 1.42951 37.6355 2.3514C38.9357 3.18125 39.9093 4.43477 40.3916 5.89986L39.7186 6.05321C39.4391 6.11763 39.1534 6.15051 38.8666 6.1512C38.4312 6.15488 37.9997 6.06906 37.5989 5.89905C37.1981 5.72905 36.8364 5.47848 36.5365 5.16291C36.303 4.90684 36.0399 4.67946 35.7526 4.48559C34.9319 3.93614 33.9628 3.65077 32.9752 3.6677C31.7987 3.64072 30.6552 4.05739 29.7718 4.8349C29.353 5.16941 29.015 5.59392 28.7827 6.07694C28.5504 6.55997 28.4298 7.08911 28.43 7.62509C28.3964 8.48479 28.6782 9.32713 29.2223 9.99356C29.8008 10.648 30.4955 11.1896 31.2713 11.591C32.1367 12.0504 33.027 12.4614 33.938 12.8221C34.8922 13.2225 35.8293 13.6485 36.7367 14.1001C37.6181 14.5314 38.4459 15.0647 39.2031 15.689C39.9339 16.2987 40.5288 17.0547 40.9497 17.9084C41.4092 18.9076 41.6309 19.9997 41.5972 21.099C41.6036 22.1076 41.3746 23.1039 40.9284 24.0085C40.474 24.9204 39.841 25.7316 39.0668 26.394C37.3608 27.8242 35.2014 28.6004 32.9752 28.5835C31.118 28.6132 29.2965 28.072 27.7569 27.0329C26.284 26.1046 25.1788 24.6939 24.6302 23.0415L25.2351 22.9052C25.5077 22.8549 25.7843 22.8292 26.0615 22.8285C26.5232 22.8232 26.9806 22.9174 27.4026 23.1049C27.8245 23.2923 28.2011 23.5686 28.5067 23.9147C28.8288 24.2981 29.2064 24.6312 29.627 24.903C30.6107 25.5676 31.7754 25.9127 32.9624 25.8913C34.3934 25.9272 35.7852 25.4222 36.8602 24.477C37.3649 24.0718 37.7717 23.5581 38.0505 22.974C38.3292 22.3899 38.4728 21.7505 38.4704 21.1032C38.5146 20.1201 38.2132 19.1526 37.6185 18.3684C37.0087 17.6307 36.2587 17.0211 35.4119 16.575C34.49 16.077 33.5399 15.6332 32.5663 15.246C31.6419 14.8583 30.7473 14.4536 29.8911 14.0234C29.062 13.6169 28.2805 13.1198 27.561 12.541C26.8731 11.9881 26.3122 11.2937 25.9167 10.5048C25.4903 9.60617 25.283 8.61929 25.3118 7.62509C25.3058 6.73164 25.5086 5.84914 25.9039 5.04789C26.3043 4.23528 26.8634 3.51107 27.5482 2.91797C29.0513 1.61713 30.9836 0.920378 32.971 0.962686M32.971 0.238533C30.8115 0.196666 28.713 0.955356 27.0796 2.36846C26.3194 3.01783 25.6991 3.81493 25.2564 4.71137C24.8125 5.61226 24.5836 6.60378 24.5876 7.60806C24.5436 8.66043 24.7496 9.70824 25.1887 10.6656C25.6278 11.623 26.2874 12.4628 27.1137 13.116C27.874 13.728 28.6997 14.2537 29.5759 14.6837C30.4278 15.1096 31.3522 15.5356 32.2937 15.9233C33.2437 16.3026 34.171 16.7364 35.0711 17.2225C35.8348 17.6232 36.5111 18.172 37.0604 18.837C37.5561 19.49 37.8051 20.2972 37.7633 21.116C37.7648 21.6599 37.6429 22.197 37.4068 22.687C37.1707 23.1769 36.8265 23.6069 36.4001 23.9446C35.4612 24.7729 34.2439 25.2157 32.9923 25.1842C31.9507 25.2105 30.9266 24.9128 30.0615 24.3322C29.6969 24.0985 29.3695 23.8113 29.0902 23.4802C28.7164 23.0602 28.2567 22.7252 27.7423 22.4981C27.2279 22.2711 26.6706 22.1571 26.1084 22.1639C25.7882 22.1649 25.4689 22.1949 25.1541 22.2534H25.1243L24.5194 22.3897L23.7441 22.5644L23.9912 23.3184C24.5893 25.1246 25.7932 26.6686 27.3991 27.689C29.052 28.7781 30.9961 29.3409 32.9752 29.3035C35.3734 29.3199 37.6991 28.4818 39.5354 26.9392C40.3831 26.2122 41.0769 25.3229 41.5759 24.3237C42.0706 23.3195 42.3258 22.2142 42.3213 21.0947C42.3538 19.8845 42.106 18.6832 41.5972 17.5846C41.1312 16.6405 40.4723 15.8046 39.6632 15.1309C38.8655 14.4627 37.9919 13.8908 37.0604 13.427C36.1445 12.9712 35.1861 12.5324 34.2191 12.149C33.3285 11.7972 32.4582 11.3961 31.6121 10.9478C30.9161 10.5876 30.2923 10.1024 29.7718 9.51646C29.3388 8.98074 29.1174 8.30469 29.1499 7.61659C29.1503 7.18388 29.249 6.75691 29.4387 6.36799C29.6283 5.97907 29.9039 5.63837 30.2447 5.37164C30.9958 4.70661 31.9724 4.35315 32.9752 4.38335C33.8182 4.3646 34.6465 4.60552 35.348 5.07345C35.5884 5.23888 35.8098 5.43032 36.0082 5.64428C36.375 6.02751 36.8163 6.33174 37.3048 6.53832C37.7934 6.74489 38.3191 6.84944 38.8496 6.84556C39.1878 6.84362 39.5249 6.80505 39.8549 6.73053L40.5365 6.57292L41.3032 6.39399L41.0604 5.64428C40.527 4.02611 39.4531 2.64077 38.0189 1.72095C36.5226 0.720597 34.7579 0.197741 32.9582 0.221477L32.971 0.238533Z" fill="white"/>
</svg>