<svg width="27" height="27" viewBox="0 0 27 27" fill="none" xmlns="http://www.w3.org/2000/svg">
<path d="M20.6087 4.95551C19.7596 4.95551 19.0803 5.63902 19.0803 6.49342C19.0803 7.34782 19.7596 8.03134 20.6087 8.03134C21.4578 8.03134 22.1372 7.34782 22.1372 6.49342C22.1372 5.63902 21.4578 4.95551 20.6087 4.95551Z" fill="white"/>
<path d="M13.8003 6.92841C10.2494 6.92841 7.36243 9.83337 7.36243 13.4063C7.36243 16.9793 10.2494 19.8842 13.8003 19.8842C17.3511 19.8842 20.2381 16.9793 20.2381 13.4063C20.2381 9.83337 17.3511 6.92841 13.8003 6.92841ZM13.8003 17.554C11.5308 17.554 9.6782 15.6899 9.6782 13.4063C9.6782 11.1227 11.5308 9.25859 13.8003 9.25859C16.0697 9.25859 17.9224 11.1227 17.9224 13.4063C17.9224 15.6899 16.0697 17.554 13.8003 17.554Z" fill="white"/>
<path d="M18.9105 26.533H8.48949C4.16671 26.533 0.646729 22.9911 0.646729 18.6415V8.15565C0.646729 3.80597 4.16671 0.264099 8.48949 0.264099H18.9105C23.2333 0.264099 26.7533 3.80597 26.7533 8.15565V18.6415C26.7533 23.0067 23.2333 26.533 18.9105 26.533ZM8.47406 2.73409C5.50987 2.73409 3.08602 5.17301 3.08602 8.15565V18.6415C3.08602 21.6241 5.50987 24.063 8.47406 24.063H18.8951C21.8593 24.063 24.2831 21.6241 24.2831 18.6415V8.15565C24.2831 5.17301 21.8593 2.73409 18.8951 2.73409H8.47406Z" fill="white"/>
</svg>
