<svg width="27" height="27" viewBox="0 0 27 27" fill="none" xmlns="http://www.w3.org/2000/svg">
<g clip-path="url(#clip0_125_442)">
<path d="M25.0146 26.7971H2.18926C1.09245 26.7971 0.203369 25.908 0.203369 24.8112V1.98589C0.203369 0.889082 1.09245 0 2.18926 0H25.0125C26.1093 0 26.9984 0.889082 26.9984 1.98589V24.8091C27.0005 25.908 26.1114 26.7971 25.0146 26.7971ZM6.15066 3.83053C4.88767 3.83053 3.86564 4.85256 3.86564 6.11555C3.86564 7.37855 4.88767 8.40057 6.15066 8.40057C7.41365 8.40057 8.43568 7.37855 8.43568 6.11555C8.43568 4.85256 7.41365 3.83053 6.15066 3.83053ZM8.18641 10.2016H4.22709V22.9666H8.18641V10.2016ZM18.9364 9.84845C15.8869 9.84845 14.4806 11.7055 14.4806 12.4658V10.2016H10.6168V22.9666H14.4806V19.3521V17.2021C14.4806 14.4974 15.162 13.4214 17.1915 13.4214C18.2031 13.3861 19.0423 14.1962 19.0423 15.2079V22.9645H23.0204V16.1925C23.0204 10.9702 20.6938 9.84845 18.9364 9.84845Z" fill="white"/>
</g>
<defs>
<clipPath id="clip0_125_442">
<rect width="26.7971" height="26.7971" fill="white" transform="translate(0.203369)"/>
</clipPath>
</defs>
</svg>
