<svg width="192" height="27" viewBox="0 0 192 27" fill="none" xmlns="http://www.w3.org/2000/svg">
<path d="M66.6087 4.95544C65.7596 4.95544 65.0803 5.63896 65.0803 6.49336C65.0803 7.34776 65.7596 8.03128 66.6087 8.03128C67.4578 8.03128 68.1372 7.34776 68.1372 6.49336C68.1372 5.63896 67.4578 4.95544 66.6087 4.95544Z" fill="white"/>
<path d="M59.8003 6.92834C56.2494 6.92834 53.3624 9.8333 53.3624 13.4062C53.3624 16.9792 56.2494 19.8842 59.8003 19.8842C63.3511 19.8842 66.2381 16.9792 66.2381 13.4062C66.2381 9.8333 63.3511 6.92834 59.8003 6.92834ZM59.8003 17.554C57.5308 17.554 55.6782 15.6898 55.6782 13.4062C55.6782 11.1227 57.5308 9.25853 59.8003 9.25853C62.0697 9.25853 63.9224 11.1227 63.9224 13.4062C63.9224 15.6898 62.0697 17.554 59.8003 17.554Z" fill="white"/>
<path d="M64.9105 26.5329H54.4895C50.1667 26.5329 46.6467 22.9911 46.6467 18.6414V8.15558C46.6467 3.80591 50.1667 0.264038 54.4895 0.264038H64.9105C69.2333 0.264038 72.7533 3.80591 72.7533 8.15558V18.6414C72.7533 23.0066 69.2333 26.5329 64.9105 26.5329ZM54.4741 2.73403C51.5099 2.73403 49.086 5.17295 49.086 8.15558V18.6414C49.086 21.624 51.5099 24.063 54.4741 24.063H64.8951C67.8593 24.063 70.2831 21.624 70.2831 18.6414V8.15558C70.2831 5.17295 67.8593 2.73403 64.8951 2.73403H54.4741Z" fill="white"/>
<path d="M13.0764 15.0374L13.802 10.2838H9.26311V7.20798C9.26311 5.90308 9.89608 4.62924 11.9185 4.62924H13.9873V0.590263C13.9873 0.590263 12.1192 0.264038 10.3284 0.264038C6.59224 0.264038 4.15296 2.54762 4.15296 6.66427V10.2838H0V15.0374H4.15296V26.5329H9.26311V15.0374H13.0764Z" fill="white"/>
<path d="M191.276 9.91115C191.276 6.67996 188.667 4.05463 185.455 4.05463H170.573C167.362 4.05463 164.752 6.67996 164.752 9.91115V16.8862C164.752 20.1173 167.362 22.7427 170.573 22.7427H185.455C188.667 22.7427 191.276 20.1173 191.276 16.8862V9.91115ZM182.522 13.9191L175.837 17.2435C175.575 17.3833 174.679 17.1969 174.679 16.9017V10.082C174.679 9.77134 175.575 9.58492 175.837 9.74027L182.229 13.2355C182.507 13.3909 182.785 13.7793 182.522 13.9191Z" fill="white"/>
</svg>
