<svg width="44" height="40" viewBox="0 0 44 40" fill="none" xmlns="http://www.w3.org/2000/svg">
<g clip-path="url(#clip0_1110_97)">
<path d="M43.0399 22.0058C40.6206 24.0158 39.532 27.117 40.2577 30.1034C40.6509 31.6827 39.4715 33.2333 37.778 33.3482C34.5725 33.6066 31.7904 35.5305 30.5203 38.3446C29.855 39.8378 27.9498 40.4121 26.4983 39.5793C23.7464 38 20.299 38 17.5168 39.5793C16.0653 40.4121 14.1601 39.8378 13.4948 38.3446C12.2247 35.5305 9.44261 33.6066 6.23711 33.3482C4.54364 33.2046 3.36426 31.6827 3.75739 30.1034C4.48316 27.117 3.42474 24.0158 0.975258 22.0058C-0.325086 20.9433 -0.325086 19.0481 0.975258 17.9857C3.3945 15.9756 4.48316 12.8744 3.75739 9.88804C3.36426 8.28 4.54364 6.7581 6.23711 6.61453C9.44261 6.35609 12.2247 4.43219 13.4948 1.61811C14.1601 0.124935 16.0653 -0.449365 17.5168 0.38337C20.2687 1.96269 23.7161 1.96269 26.4983 0.38337C27.9498 -0.449365 29.855 0.124935 30.5203 1.61811C31.7904 4.43219 34.5725 6.35609 37.778 6.61453C39.4715 6.7581 40.6509 8.28 40.2577 9.85932C39.532 12.8457 40.5904 15.9469 43.0399 17.957C44.3402 19.0481 44.3402 20.9433 43.0399 22.0058Z" fill="#86C6CA"/>
<path d="M11.7402 19.3643L18.1512 25.4806C18.5141 25.8251 19.0584 25.8251 19.4213 25.4806L31.699 13.8223" stroke="white" stroke-width="3" stroke-miterlimit="10" stroke-linecap="round"/>
</g>
<defs>
<clipPath id="clip0_1110_97">
<rect width="44" height="40" fill="white"/>
</clipPath>
</defs>
</svg>
