<svg width="31" height="28" viewBox="0 0 31 28" fill="none" xmlns="http://www.w3.org/2000/svg">
<g clip-path="url(#clip0_1_2483)">
<path d="M30.3183 15.417C28.6139 16.824 27.8469 18.9949 28.3582 21.0853C28.6352 22.1908 27.8043 23.2763 26.6111 23.3567C24.3527 23.5376 22.3926 24.8843 21.4977 26.8542C21.029 27.8994 19.6867 28.3014 18.6641 27.7185C16.7252 26.613 14.2964 26.613 12.3362 27.7185C11.3135 28.3014 9.97127 27.8994 9.50254 26.8542C8.6077 24.8843 6.64756 23.5376 4.38914 23.3567C3.19601 23.2562 2.36509 22.1908 2.64206 21.0853C3.1534 18.9949 2.4077 16.824 0.681925 15.417C-0.234226 14.6733 -0.234226 13.3466 0.681925 12.6029C2.38639 11.1959 3.1534 9.02502 2.64206 6.93457C2.36509 5.80894 3.19601 4.74361 4.38914 4.64311C6.64756 4.4622 8.6077 3.11547 9.50254 1.14562C9.97127 0.100394 11.3135 -0.301616 12.3362 0.281298C14.2751 1.38683 16.7039 1.38683 18.6641 0.281298C19.6867 -0.301616 21.029 0.100394 21.4977 1.14562C22.3926 3.11547 24.3527 4.4622 26.6111 4.64311C27.8043 4.74361 28.6352 5.80894 28.3582 6.91446C27.8469 9.00492 28.5926 11.1758 30.3183 12.5828C31.2345 13.3466 31.2345 14.6733 30.3183 15.417Z" fill="#00A5BD"/>
<path d="M8.26666 13.5678L12.7835 17.8492C13.0392 18.0904 13.4227 18.0904 13.6783 17.8492L22.3285 9.68835" stroke="white" stroke-width="3" stroke-miterlimit="10" stroke-linecap="round"/>
</g>
<defs>
<clipPath id="clip0_1_2483">
<rect width="31" height="28" fill="white"/>
</clipPath>
</defs>
</svg>
