<svg width="66" height="66" viewBox="0 0 66 66" fill="none" xmlns="http://www.w3.org/2000/svg">
<g clip-path="url(#clip0_298_17)">
<path d="M42.075 66H9.9C4.44098 66 0 61.559 0 56.1V9.9C0 4.44098 4.44098 0 9.9 0H44.55C50.009 0 54.45 4.44098 54.45 9.9V22.5473C54.45 22.9849 54.2762 23.4045 53.9667 23.714C53.6573 24.0234 53.2376 24.1973 52.8 24.1973C52.3624 24.1973 51.9427 24.0234 51.6333 23.714C51.3238 23.4045 51.15 22.9849 51.15 22.5473V9.9C51.15 6.26093 48.1891 3.3 44.55 3.3H9.9C6.26093 3.3 3.3 6.26093 3.3 9.9V56.1C3.3 59.7391 6.26093 62.7 9.9 62.7H42.075C42.5126 62.7 42.9323 62.8738 43.2417 63.1833C43.5512 63.4927 43.725 63.9124 43.725 64.35C43.725 64.7876 43.5512 65.2073 43.2417 65.5167C42.9323 65.8262 42.5126 66 42.075 66Z" fill="#8FA5AF"/>
<path d="M24.75 15.675H9.9C9.46239 15.675 9.04271 15.5012 8.73327 15.1917C8.42384 14.8823 8.25 14.4626 8.25 14.025C8.25 13.5874 8.42384 13.1677 8.73327 12.8583C9.04271 12.5488 9.46239 12.375 9.9 12.375H24.75C25.1876 12.375 25.6073 12.5488 25.9167 12.8583C26.2262 13.1677 26.4 13.5874 26.4 14.025C26.4 14.4626 26.2262 14.8823 25.9167 15.1917C25.6073 15.5012 25.1876 15.675 24.75 15.675ZM13.2 32.175H9.9C9.46239 32.175 9.04271 32.0012 8.73327 31.6917C8.42384 31.3823 8.25 30.9626 8.25 30.525C8.25 30.0874 8.42384 29.6677 8.73327 29.3583C9.04271 29.0488 9.46239 28.875 9.9 28.875H13.2C13.6376 28.875 14.0573 29.0488 14.3667 29.3583C14.6762 29.6677 14.85 30.0874 14.85 30.525C14.85 30.9626 14.6762 31.3823 14.3667 31.6917C14.0573 32.0012 13.6376 32.175 13.2 32.175ZM42.075 66C28.8824 66 18.15 55.2667 18.15 42.075C18.15 28.8824 28.8824 18.15 42.075 18.15C55.2667 18.15 66 28.8824 66 42.075C66 55.2667 55.2667 66 42.075 66ZM42.075 21.45C30.7024 21.45 21.45 30.7024 21.45 42.075C21.45 53.4476 30.7024 62.7 42.075 62.7C53.4476 62.7 62.7 53.4476 62.7 42.075C62.7 30.7024 53.4476 21.45 42.075 21.45Z" fill="#8FA5AF"/>
<path d="M38.7752 51.1507C38.5584 51.1511 38.3438 51.1085 38.1436 51.0255C37.9434 50.9426 37.7616 50.8208 37.6086 50.6673L31.0086 44.0673C30.851 43.9151 30.7253 43.733 30.6388 43.5317C30.5524 43.3304 30.5068 43.1139 30.5049 42.8948C30.503 42.6757 30.5448 42.4584 30.6278 42.2557C30.7107 42.0529 30.8332 41.8687 30.9882 41.7137C31.1431 41.5588 31.3273 41.4363 31.5301 41.3533C31.7329 41.2704 31.9501 41.2286 32.1692 41.2305C32.3883 41.2324 32.6048 41.278 32.8061 41.3644C33.0074 41.4509 33.1895 41.5766 33.3417 41.7342L38.7752 47.1676L52.4586 33.4842C52.6108 33.3266 52.7929 33.2009 52.9942 33.1144C53.1955 33.028 53.412 32.9824 53.6311 32.9805C53.8502 32.9786 54.0675 33.0204 54.2702 33.1033C54.473 33.1863 54.6572 33.3088 54.8122 33.4637C54.9671 33.6187 55.0896 33.8029 55.1726 34.0057C55.2555 34.2084 55.2973 34.4257 55.2954 34.6448C55.2935 34.8639 55.2479 35.0804 55.1615 35.2817C55.075 35.483 54.9493 35.6651 54.7917 35.8173L39.9417 50.6673C39.7887 50.8208 39.6069 50.9426 39.4067 51.0255C39.2065 51.1085 38.9919 51.1511 38.7752 51.1507Z" fill="#008000"/>
</g>
<defs>
<clipPath id="clip0_298_17">
<rect width="66" height="66" fill="white"/>
</clipPath>
</defs>
</svg>
