<svg width="198" height="43" viewBox="0 0 198 43" fill="none" xmlns="http://www.w3.org/2000/svg">
<path d="M74.8936 2.5293H79.2832V25.7482H93.8762V29.5326H74.8936V2.5293Z" fill="#86C6CA"/>
<path d="M105.229 9.45118C108.457 9.45118 110.915 10.5351 112.604 12.703C114.167 14.6907 114.948 17.4383 114.948 20.9457H100.307C100.458 22.7854 100.949 24.172 101.78 25.1053C102.615 26.0615 103.797 26.5416 105.374 26.5416C106.52 26.5932 107.652 26.275 108.602 25.6338C109.36 24.988 109.954 24.1724 110.337 23.2534H114.65C114.239 25.0242 113.287 26.6233 111.927 27.8286C110.102 29.3386 107.79 30.1318 105.423 30.0597C102.526 30.0597 100.22 29.1641 98.5036 27.3727C96.6881 25.5329 95.7803 22.9871 95.7803 19.7353C95.7803 16.8116 96.6383 14.3787 98.3543 12.4368C100.008 10.4437 102.3 9.44849 105.229 9.45118ZM105.342 12.9653C103.906 12.9653 102.784 13.3687 101.977 14.1757C101.17 14.9826 100.641 16.1553 100.388 17.6938H110.442C110.065 14.5441 108.363 12.968 105.334 12.9653H105.342Z" fill="#86C6CA"/>
<path d="M132.262 2H136.571V29.5319H132.564V27.45C131.201 29.1903 129.233 30.0604 126.662 30.0604C123.741 30.0604 121.472 29.0396 119.855 26.9982C118.346 25.1154 117.591 22.6691 117.588 19.6593C117.588 16.7625 118.332 14.3807 119.819 12.5141C121.409 10.4726 123.614 9.45183 126.436 9.45183C128.706 9.45183 130.648 10.5277 132.262 12.6795V2ZM127.456 12.9296C125.517 12.9296 124.093 13.5725 123.184 14.8582C122.405 15.9435 122.01 17.5411 122.01 19.6593C122.01 21.7774 122.377 23.4276 123.107 24.5371C123.965 25.9008 125.365 26.5813 127.307 26.5786C128.075 26.6083 128.838 26.438 129.52 26.0843C130.203 25.7307 130.782 25.2059 131.201 24.5613C132.055 23.151 132.476 21.5207 132.411 19.8731V19.5705C132.411 17.5021 131.908 15.8506 130.902 14.6161C130.501 14.084 129.979 13.654 129.381 13.361C128.782 13.0679 128.123 12.9202 127.456 12.9296Z" fill="#86C6CA"/>
<path d="M155.024 29.0769V26.051C154.394 27.0033 153.533 27.7804 152.521 28.3095C151.51 28.8387 150.38 29.1027 149.239 29.0769C146.592 29.0769 144.45 28.1947 142.812 26.4302C141.174 24.6658 140.353 22.2962 140.351 19.3213C140.351 16.3492 141.171 13.9661 142.812 12.1721C144.452 10.378 146.595 9.47162 149.239 9.45279C150.369 9.41606 151.491 9.66304 152.502 10.1712C153.512 10.6793 154.379 11.4324 155.024 12.3617V9.98536H159.333V29.081L155.024 29.0769ZM149.921 12.9387C149.2 12.9044 148.482 13.0408 147.824 13.3367C147.167 13.6325 146.588 14.0795 146.136 14.6412C145.224 15.7467 144.768 17.3068 144.768 19.3213C144.768 21.1853 145.121 22.6351 145.825 23.6706C146.657 24.9294 148.001 25.5588 149.86 25.5588C151.498 25.5588 152.784 25.0208 153.717 23.9449C154.599 22.7884 155.04 21.2512 155.04 19.3334C155.04 17.3646 154.599 15.8018 153.717 14.6453C153.263 14.0821 152.683 13.6335 152.023 13.3357C151.364 13.0379 150.643 12.8991 149.921 12.9306V12.9387Z" fill="#86C6CA"/>
<path d="M172.204 9.45118C175.431 9.45118 177.89 10.5351 179.579 12.703C181.142 14.6907 181.923 17.4383 181.923 20.9457H167.278C167.428 22.7854 167.919 24.172 168.75 25.1053C169.581 26.0386 170.78 26.5174 172.345 26.5416C173.491 26.595 174.623 26.2766 175.573 25.6338C176.332 24.9884 176.927 24.1728 177.312 23.2534H181.625C181.212 25.0236 180.261 26.6222 178.901 27.8286C177.077 29.3383 174.765 30.1315 172.397 30.0597C169.501 30.0597 167.189 29.1641 165.478 27.3727C163.663 25.5329 162.755 22.9871 162.755 19.7353C162.755 16.8116 163.612 14.3787 165.325 12.4368C166.982 10.4437 169.275 9.44849 172.204 9.45118ZM172.317 12.9653C170.881 12.9653 169.759 13.3687 168.952 14.1757C168.145 14.9826 167.615 16.1553 167.362 17.6938H177.408C177.035 14.5441 175.333 12.968 172.305 12.9653H172.317Z" fill="#86C6CA"/>
<path d="M194.539 9.45243C195.386 9.42348 196.228 9.59056 197 9.94062V14.2536C196.092 13.9805 195.148 13.8446 194.2 13.8501C193.626 13.8494 193.058 13.9664 192.531 14.1941C192.004 14.4217 191.53 14.755 191.137 15.1734C190.615 15.6976 190.206 16.3249 189.939 17.0153C189.672 17.7057 189.551 18.4442 189.584 19.1838V29.5446H185.312V9.985H189.584V12.7809C190.018 11.8909 190.653 11.1144 191.44 10.5135C192.313 9.80042 193.412 9.42392 194.539 9.45243Z" fill="#86C6CA"/>
<path d="M159.333 35.5765V31.2676H155.025V32.95C155.024 33.4956 154.911 34.0354 154.693 34.5353C154.474 35.0352 154.154 35.4844 153.754 35.8549L153.116 36.4439C152.385 37.1167 151.427 37.4897 150.433 37.4889C149.441 37.4899 148.484 37.1168 147.754 36.4439L147.117 35.8549C146.715 35.4853 146.394 35.0362 146.175 34.5362C145.955 34.0362 145.842 33.496 145.842 32.95V31.2676H141.541V35.5765H143.695C144.69 35.5728 145.649 35.9429 146.382 36.6134L147.02 37.2024C147.421 37.5724 147.741 38.0216 147.96 38.5216C148.179 39.0216 148.291 39.5615 148.291 40.1073V41.7897H152.6V40.1073C152.6 39.5608 152.714 39.0202 152.933 38.5197C153.153 38.0191 153.473 37.5692 153.875 37.1984L154.512 36.6134C155.242 35.9394 156.198 35.5648 157.191 35.5644L159.333 35.5765Z" fill="white"/>
<path d="M51.1664 6.29277C49.9145 6.82359 48.7783 7.59381 47.8217 8.5602C46.8572 9.52308 46.0849 10.661 45.5462 11.9129C45.0004 13.2014 44.7191 14.5865 44.7191 15.9858C44.7191 17.3852 45.0004 18.7702 45.5462 20.0587C46.6261 22.5859 48.6392 24.5991 51.1664 25.6789C52.4563 26.2247 53.8427 26.506 55.2433 26.506C56.644 26.506 58.0303 26.2247 59.3202 25.6789C61.2251 24.8611 62.8521 23.5088 64.0044 21.7855V18.4973C64.0028 18.168 64.0661 17.8415 64.1908 17.5367C64.3155 17.2318 64.4991 16.9546 64.7311 16.7207C64.963 16.4869 65.2388 16.3011 65.5426 16.174C65.8465 16.0468 66.1724 15.9808 66.5018 15.9798H66.5542V28.4869H66.4977C66.167 28.488 65.8394 28.4236 65.5337 28.2974C65.228 28.1712 64.9503 27.9857 64.7166 27.7517C64.4829 27.5176 64.2979 27.2397 64.1722 26.9337C64.0465 26.6278 63.9826 26.3001 63.9842 25.9694V25.695C62.8038 26.7495 61.4479 27.5893 59.9779 28.1763C56.8123 29.4166 53.2878 29.3732 50.1537 28.0552C48.5945 27.3907 47.1781 26.4318 45.982 25.231C44.7885 24.0304 43.8305 22.6168 43.1578 21.0633C42.4788 19.4595 42.1289 17.7356 42.1289 15.9939C42.1289 14.2522 42.4788 12.5283 43.1578 10.9245C44.5033 7.77493 47.0164 5.26898 50.1699 3.93256C51.7757 3.26154 53.4989 2.91602 55.2393 2.91602C56.9797 2.91602 58.7028 3.26154 60.3087 3.93256C61.8659 4.60068 63.2817 5.55914 64.4805 6.75676C65.2871 7.56159 65.9844 8.46909 66.5542 9.45588L66.3001 9.60516C65.7968 9.89292 65.2102 9.99971 64.6378 9.90775C64.0615 9.81174 63.5374 9.5161 63.1571 9.07259C62.9998 8.89911 62.8344 8.72967 62.6609 8.55618C61.7057 7.58991 60.5709 6.81966 59.3202 6.28876C58.029 5.74825 56.6431 5.46988 55.2433 5.46988C53.8435 5.46988 52.4576 5.74825 51.1664 6.28876V6.29277Z" fill="white"/>
<path d="M55.2374 2.92459C56.9791 2.91052 58.7051 3.25381 60.3089 3.93323C61.8661 4.60135 63.2819 5.55981 64.4806 6.75743C65.2873 7.56226 65.9845 8.46976 66.5544 9.45655L66.3002 9.60583C65.9154 9.82138 65.4825 9.93655 65.0414 9.94071C64.9063 9.93998 64.7715 9.92919 64.638 9.90842C64.0617 9.81241 63.5376 9.51677 63.1573 9.07326C62.9999 8.89978 62.8345 8.73034 62.661 8.55685C61.7059 7.59058 60.5711 6.82033 59.3204 6.28943C58.0291 5.74892 56.6433 5.47055 55.2435 5.47055C53.8437 5.47055 52.4578 5.74892 51.1666 6.28943C49.9147 6.82024 48.7785 7.59047 47.8219 8.55685C46.8573 9.51974 46.085 10.6576 45.5464 11.9096C45.0006 13.1981 44.7193 14.5831 44.7193 15.9825C44.7193 17.3818 45.0006 18.7669 45.5464 20.0554C46.6254 22.5841 48.6386 24.5988 51.1666 25.6795C52.4565 26.2254 53.8428 26.5066 55.2435 26.5066C56.6441 26.5066 58.0305 26.2254 59.3204 25.6795C61.2253 24.8618 62.8523 23.5094 64.0045 21.7862V18.498C64.0029 18.1686 64.0663 17.8422 64.191 17.5374C64.3157 17.2325 64.4993 16.9552 64.7312 16.7214C64.9632 16.4876 65.239 16.3018 65.5428 16.1746C65.8466 16.0475 66.1726 15.9815 66.5019 15.9804H66.5544V28.4876H66.4979C66.1672 28.4887 65.8395 28.4242 65.5338 28.2981C65.2281 28.1719 64.9504 27.9864 64.7167 27.7524C64.4831 27.5183 64.2981 27.2403 64.1724 26.9344C64.0467 26.6285 63.9828 26.3007 63.9844 25.97V25.6957C62.8039 26.7502 61.448 27.59 59.978 28.1769C56.8125 29.4173 53.2879 29.3739 50.1539 28.0559C48.5947 27.3914 47.1783 26.4325 45.9821 25.2317C44.7886 24.0311 43.8307 22.6175 43.1579 21.064C42.4789 19.4601 42.1291 17.7362 42.1291 15.9946C42.1291 14.2529 42.4789 12.529 43.1579 10.9251C44.5034 7.7756 47.0166 5.26965 50.17 3.93323C51.7716 3.2507 53.4965 2.90463 55.2374 2.91651M55.2374 2.23066C53.4032 2.22093 51.5865 2.58756 49.8997 3.30788C46.6039 4.71587 43.9761 7.33788 42.5608 10.6306C41.8446 12.3204 41.4756 14.1371 41.4756 15.9724C41.4756 17.8077 41.8446 19.6243 42.5608 21.3141C43.262 22.955 44.2652 24.4495 45.5182 25.7199C46.7781 26.9793 48.2665 27.987 49.9037 28.6893C53.2057 30.0755 56.9179 30.1204 60.2524 28.8144C61.4008 28.3534 62.4855 27.7474 63.48 27.011C63.6387 27.476 63.9039 27.8974 64.2547 28.2415C64.549 28.5422 64.9015 28.7799 65.2906 28.9401C65.6797 29.1003 66.0973 29.1797 66.5181 29.1735H67.2403V15.2986H66.4979C65.6518 15.3018 64.8416 15.6404 64.2448 16.2402C63.6481 16.84 63.3135 17.6519 63.3146 18.498V21.5764C62.9743 22.0619 62.5923 22.5169 62.1728 22.936C61.2742 23.8347 60.2114 24.5524 59.042 25.0502C57.8381 25.5588 56.5444 25.8209 55.2374 25.8209C53.9305 25.8209 52.6368 25.5588 51.4328 25.0502C50.2635 24.5524 49.2006 23.8347 48.302 22.936C47.3965 22.0327 46.6721 20.9645 46.1677 19.7891C45.6591 18.5866 45.397 17.2942 45.397 15.9885C45.397 14.6828 45.6591 13.3905 46.1677 12.188C46.6742 11.0149 47.3984 9.94839 48.302 9.04502C49.196 8.14059 50.2582 7.41967 51.4288 6.92283C52.6355 6.41947 53.93 6.16032 55.2374 6.16032C56.5449 6.16032 57.8394 6.41947 59.0461 6.92283C60.2162 7.41875 61.2783 8.13824 62.1728 9.04098C62.3463 9.2185 62.5037 9.37991 62.653 9.54129C62.9488 9.88326 63.315 10.1573 63.7265 10.3446C64.1381 10.5319 64.5852 10.6281 65.0374 10.6266C65.5914 10.6277 66.1368 10.4889 66.623 10.2231L66.8893 10.0698L67.4904 9.72686L67.1434 9.12975C65.6393 6.53769 63.3364 4.50229 60.5792 3.32805C58.8909 2.60774 57.0729 2.24112 55.2374 2.25083V2.23066Z" fill="white"/>
<path d="M0.681641 28.4702V3.49219H19.6723V3.52851C19.6739 3.85957 19.6099 4.18767 19.484 4.49384C19.358 4.8 19.1726 5.07818 18.9385 5.31227C18.7044 5.54637 18.4263 5.73177 18.1201 5.85772C17.8139 5.98367 17.4858 6.04768 17.1548 6.04607H3.23552V14.6962H16.2833V14.7325C16.2844 15.0632 16.22 15.3909 16.0938 15.6966C15.9676 16.0023 15.7821 16.28 15.5481 16.5137C15.314 16.7473 15.036 16.9323 14.7301 17.058C14.4242 17.1837 14.0965 17.2476 13.7657 17.246H3.23552V25.9163H17.1548C17.4865 25.91 17.8159 25.9719 18.1227 26.0982C18.4295 26.2245 18.707 26.4125 18.9381 26.6506C19.1736 26.8793 19.3602 27.1536 19.4864 27.4567C19.6127 27.7598 19.6759 28.0854 19.6723 28.4137V28.4702H0.681641Z" fill="white"/>
<path d="M19.6725 3.4925V3.52882C19.6741 3.85988 19.6101 4.18798 19.4842 4.49414C19.3582 4.80031 19.1728 5.07848 18.9387 5.31258C18.7046 5.54668 18.4265 5.73208 18.1203 5.85803C17.8141 5.98398 17.486 6.04799 17.155 6.04638H3.23572V14.6965H16.2835V14.7328C16.2846 15.0635 16.2202 15.3912 16.094 15.6969C15.9678 16.0026 15.7823 16.2803 15.5483 16.514C15.3142 16.7476 15.0362 16.9327 14.7303 17.0584C14.4244 17.1841 14.0967 17.2479 13.7659 17.2463H3.23572V25.9166H17.155C17.4867 25.9103 17.8161 25.9722 18.1229 26.0985C18.4297 26.2248 18.7072 26.4129 18.9383 26.6509C19.1738 26.8796 19.3604 27.1539 19.4866 27.457C19.6129 27.7601 19.6761 28.0857 19.6725 28.414V28.4705H0.681843V3.4925H19.6725ZM20.3544 2.80664H0V29.1523H20.3544V28.414C20.3539 27.995 20.2706 27.5801 20.1094 27.1933C19.9482 26.8065 19.7122 26.4554 19.4149 26.16C19.1176 25.8646 18.765 25.6308 18.3772 25.4721C17.9894 25.3133 17.574 25.2327 17.155 25.2348H3.9216V17.9322H13.7659C14.1866 17.9333 14.6033 17.8513 14.9922 17.6909C15.381 17.5306 15.7344 17.295 16.0321 16.9978C16.3297 16.7005 16.5657 16.3474 16.7265 15.9587C16.8874 15.57 16.9699 15.1535 16.9694 14.7328V14.0187H3.9216V6.72823H17.155C17.5756 6.72983 17.9923 6.64818 18.3812 6.48796C18.7701 6.32774 19.1235 6.09213 19.4209 5.79472C19.7183 5.4973 19.9539 5.14396 20.1141 4.75507C20.2743 4.36618 20.356 3.94942 20.3544 3.52882V2.80664Z" fill="white"/>
<path d="M19.6725 3.4925V3.52882C19.6741 3.85988 19.6101 4.18798 19.4842 4.49414C19.3582 4.80031 19.1728 5.07848 18.9387 5.31258C18.7046 5.54668 18.4265 5.73208 18.1203 5.85803C17.8141 5.98398 17.486 6.04799 17.155 6.04638H3.23572V14.6965H16.2835V14.7328C16.2846 15.0635 16.2202 15.3912 16.094 15.6969C15.9678 16.0026 15.7823 16.2803 15.5483 16.514C15.3142 16.7476 15.0362 16.9327 14.7303 17.0584C14.4244 17.1841 14.0967 17.2479 13.7659 17.2463H3.23572V25.9166H17.155C17.4867 25.9103 17.8161 25.9722 18.1229 26.0985C18.4297 26.2248 18.7072 26.4129 18.9383 26.6509C19.1738 26.8796 19.3604 27.1539 19.4866 27.457C19.6129 27.7601 19.6761 28.0857 19.6725 28.414V28.4705H0.681843V3.4925H19.6725ZM20.3544 2.80664H0V29.1523H20.3544V28.414C20.3539 27.995 20.2706 27.5801 20.1094 27.1933C19.9482 26.8065 19.7122 26.4554 19.4149 26.16C19.1176 25.8646 18.765 25.6308 18.3772 25.4721C17.9894 25.3133 17.574 25.2327 17.155 25.2348H3.9216V17.9322H13.7659C14.1866 17.9333 14.6033 17.8513 14.9922 17.6909C15.381 17.5306 15.7344 17.295 16.0321 16.9978C16.3297 16.7005 16.5657 16.3474 16.7265 15.9587C16.8874 15.57 16.9699 15.1535 16.9694 14.7328V14.0187H3.9216V6.72823H17.155C17.5756 6.72983 17.9923 6.64818 18.3812 6.48796C18.7701 6.32774 19.1235 6.09213 19.4209 5.79472C19.7183 5.4973 19.9539 5.14396 20.1141 4.75507C20.2743 4.36618 20.356 3.94942 20.3544 3.52882V2.80664Z" fill="white"/>
<path d="M34.6249 6.88998C34.4038 6.64745 34.1546 6.43209 33.8826 6.24847C33.1052 5.72809 32.1873 5.4578 31.252 5.47384C30.1377 5.44828 29.0547 5.84292 28.218 6.57931C27.8214 6.89613 27.5012 7.29819 27.2812 7.75567C27.0612 8.21316 26.947 8.71431 26.9471 9.22195C26.9153 10.0362 27.1822 10.834 27.6976 11.4652C28.2455 12.0849 28.9035 12.5979 29.6382 12.9781C30.4579 13.4132 31.301 13.8025 32.1638 14.1441C33.0676 14.5234 33.9552 14.9268 34.8145 15.3545C35.6494 15.7631 36.4334 16.2681 37.1505 16.8594C37.8426 17.4369 38.4061 18.1529 38.8047 18.9614C39.24 19.9077 39.4499 20.9421 39.418 21.9833C39.4241 22.9386 39.2072 23.8821 38.7845 24.7389C38.3542 25.6026 37.7547 26.3709 37.0214 26.9982C35.4056 28.3528 33.3604 29.088 31.252 29.072C29.493 29.1001 27.7679 28.5875 26.3097 27.6034C24.907 26.7277 23.8529 25.3911 23.3281 23.823L23.901 23.6939C24.1592 23.6463 24.4212 23.622 24.6837 23.6213C25.121 23.6163 25.5542 23.7056 25.9539 23.8831C26.3535 24.0606 26.7102 24.3223 26.9996 24.6501C27.3047 25.0132 27.6623 25.3287 28.0607 25.5861C28.9924 26.2156 30.0955 26.5425 31.2197 26.5222C32.575 26.5562 33.8932 26.0779 34.9114 25.1827C35.3893 24.7989 35.7747 24.3123 36.0387 23.7591C36.3027 23.2059 36.4387 22.6003 36.4364 21.9873C36.4782 21.0562 36.1928 20.1398 35.6295 19.3971C35.052 18.6984 34.3416 18.1211 33.5396 17.6986C32.6665 17.2269 31.7666 16.8066 30.8445 16.4398C29.969 16.0726 29.1218 15.6894 28.3108 15.2819C27.5255 14.8969 26.7854 14.426 26.1039 13.8779C25.4524 13.3543 24.9212 12.6965 24.5466 11.9493C24.1427 11.0983 23.9464 10.1636 23.9737 9.22195C23.968 8.37574 24.16 7.53992 24.5345 6.78104C24.9137 6.0114 25.4432 5.32549 26.0918 4.76376C27.5154 3.53171 29.3455 2.87181 31.2278 2.91188C32.7974 2.88731 34.3371 3.34193 35.6416 4.21506C36.873 5.00103 37.7952 6.18825 38.252 7.57586L37.6145 7.7211C37.3499 7.78211 37.0792 7.81323 36.8076 7.81389C36.4002 7.81563 35.9967 7.73465 35.6215 7.57584C35.2463 7.41702 34.9073 7.18369 34.6249 6.88998Z" fill="white"/>
<path d="M31.2312 2.92384C32.8007 2.89927 34.3405 3.35387 35.645 4.227C36.8764 5.01297 37.7985 6.20019 38.2554 7.5878L37.6179 7.73304C37.3532 7.79405 37.0826 7.82519 36.811 7.82585C36.3986 7.82934 35.99 7.74805 35.6103 7.58704C35.2307 7.42602 34.8882 7.18871 34.6041 6.88983C34.383 6.6473 34.1338 6.43194 33.8617 6.24832C33.0844 5.72794 32.1665 5.45765 31.2312 5.47369C30.1169 5.44813 29.0338 5.84277 28.1972 6.57916C27.8006 6.89598 27.4804 7.29804 27.2603 7.75552C27.0403 8.213 26.9262 8.71416 26.9263 9.22179C26.8945 10.036 27.1614 10.8338 27.6767 11.465C28.2247 12.0848 28.8826 12.5978 29.6174 12.978C30.437 13.413 31.2802 13.8023 32.143 14.144C33.0467 14.5232 33.9343 14.9267 34.7937 15.3543C35.6285 15.7629 36.4126 16.268 37.1297 16.8592C37.8218 17.4367 38.3853 18.1528 38.7839 18.9612C39.2192 19.9076 39.4291 20.942 39.3971 21.9831C39.4032 22.9384 39.1863 23.882 38.7637 24.7387C38.3334 25.6024 37.7338 26.3708 37.0006 26.9981C35.3848 28.3527 33.3396 29.0878 31.2312 29.0719C29.4722 29.1 27.747 28.5874 26.2888 27.6033C24.8938 26.724 23.8471 25.3879 23.3275 23.8229L23.9004 23.6938C24.1586 23.6462 24.4205 23.6219 24.6831 23.6212C25.1204 23.6161 25.5536 23.7054 25.9532 23.8829C26.3529 24.0605 26.7095 24.3221 26.9989 24.65C27.304 25.0131 27.6617 25.3286 28.06 25.586C28.9917 26.2154 30.0949 26.5423 31.2191 26.522C32.5743 26.556 33.8926 26.0777 34.9107 25.1825C35.3887 24.7987 35.774 24.3122 36.038 23.759C36.3021 23.2058 36.438 22.6001 36.4358 21.9872C36.4776 21.056 36.1921 20.1396 35.6289 19.397C35.0513 18.6982 34.341 18.1209 33.539 17.6984C32.6659 17.2267 31.766 16.8064 30.8439 16.4396C29.9684 16.0725 29.1211 15.6892 28.3102 15.2817C27.5249 14.8968 26.7847 14.4259 26.1033 13.8777C25.4517 13.3541 24.9206 12.6963 24.5459 11.9492C24.1421 11.0981 23.9457 10.1634 23.973 9.22179C23.9674 8.37559 24.1594 7.53977 24.5338 6.78089C24.9131 6.01125 25.4426 5.32534 26.0912 4.7636C27.5147 3.53156 29.3449 2.87166 31.2272 2.91173M31.2272 2.22587C29.1819 2.18622 27.1944 2.90479 25.6473 4.24315C24.9273 4.85819 24.3399 5.61314 23.9206 6.46217C23.5002 7.31541 23.2834 8.2545 23.2871 9.20566C23.2455 10.2024 23.4406 11.1948 23.8564 12.1015C24.2723 13.0083 24.8971 13.8036 25.6796 14.4224C26.3997 15.0019 27.1818 15.4999 28.0116 15.9071C28.8185 16.3105 29.694 16.714 30.5857 17.0811C31.4854 17.4404 32.3637 17.8512 33.2162 18.3117C33.9396 18.6912 34.5801 19.211 35.1003 19.8408C35.5698 20.4593 35.8056 21.2238 35.766 21.9993C35.7675 22.5144 35.652 23.0231 35.4284 23.4871C35.2048 23.9512 34.8788 24.3584 34.475 24.6782C33.5857 25.4627 32.4328 25.8821 31.2473 25.8523C30.2608 25.8772 29.2909 25.5953 28.4715 25.0454C28.1262 24.824 27.8161 24.552 27.5517 24.2385C27.1976 23.8406 26.7622 23.5234 26.275 23.3083C25.7878 23.0932 25.26 22.9853 24.7275 22.9918C24.4243 22.9927 24.1218 23.0211 23.8237 23.0765H23.7955L23.2226 23.2056L22.4883 23.371L22.7223 24.0851C23.2887 25.7958 24.429 27.2582 25.9499 28.2246C27.5155 29.2561 29.3567 29.7892 31.2312 29.7537C33.5025 29.7693 35.7052 28.9755 37.4444 27.5145C38.2473 26.8259 38.9044 25.9836 39.377 25.0373C39.8455 24.0862 40.0872 23.0394 40.083 21.9791C40.1138 20.8329 39.879 19.6951 39.3971 18.6546C38.9558 17.7604 38.3318 16.9687 37.5655 16.3307C36.81 15.6978 35.9826 15.1561 35.1003 14.7169C34.2329 14.2852 33.3251 13.8696 32.4093 13.5065C31.5658 13.1732 30.7415 12.7934 29.9401 12.3688C29.2809 12.0276 28.6901 11.5681 28.1972 11.0131C27.787 10.5058 27.5774 9.86546 27.6081 9.21374C27.6085 8.80392 27.702 8.39953 27.8817 8.03117C28.0613 7.66282 28.3223 7.34014 28.645 7.08752C29.3565 6.45765 30.2814 6.12289 31.2312 6.1515C32.0296 6.13373 32.8141 6.36191 33.4784 6.80509C33.7061 6.96177 33.9158 7.14309 34.1038 7.34574C34.4512 7.7087 34.8691 7.99684 35.3318 8.19249C35.7946 8.38814 36.2925 8.48717 36.7949 8.48349C37.1152 8.48165 37.4345 8.44512 37.747 8.37455L38.3925 8.22527L39.1188 8.0558L38.8888 7.34574C38.3836 5.81315 37.3664 4.50107 36.0081 3.62989C34.5909 2.68244 32.9196 2.18724 31.215 2.20972L31.2272 2.22587Z" fill="white"/>
</svg>
