<svg width="208" height="43" viewBox="0 0 208 43" fill="none" xmlns="http://www.w3.org/2000/svg">
<g clip-path="url(#clip0_268_24)">
<path d="M79.0752 1.55859H83.7099V26.074H99.1178V30.0697H79.0752V1.55859Z" fill="#86C6CA"/>
<path d="M111.105 8.86719C114.513 8.86719 117.109 10.0117 118.892 12.3006C120.542 14.3993 121.367 17.3003 121.367 21.0035H105.908C106.067 22.946 106.586 24.4099 107.463 25.3954C108.345 26.405 109.593 26.9119 111.259 26.9119C112.468 26.9664 113.663 26.6304 114.667 25.9534C115.467 25.2716 116.094 24.4104 116.498 23.4401H121.052C120.618 25.3098 119.614 26.9981 118.177 28.2708C116.251 29.8651 113.809 30.7026 111.31 30.6265C108.251 30.6265 105.816 29.6808 104.004 27.7894C102.087 25.8469 101.129 23.159 101.129 19.7255C101.129 16.6386 102.035 14.0699 103.847 12.0195C105.593 9.91513 108.013 8.86435 111.105 8.86719ZM111.225 12.5775C109.708 12.5775 108.524 13.0035 107.672 13.8555C106.82 14.7075 106.261 15.9456 105.994 17.5701H116.609C116.212 14.2445 114.414 12.5804 111.216 12.5775H111.225Z" fill="#86C6CA"/>
<path d="M139.646 1H144.196V30.0692H139.966V27.8711C138.526 29.7085 136.449 30.6272 133.734 30.6272C130.65 30.6272 128.254 29.5495 126.547 27.394C124.954 25.4061 124.156 22.8232 124.153 19.6453C124.153 16.5868 124.939 14.072 126.509 12.1012C128.187 9.94567 130.516 8.86792 133.495 8.86792C135.892 8.86792 137.942 10.0039 139.646 12.2758V1ZM134.573 12.5399C132.525 12.5399 131.022 13.2187 130.062 14.5761C129.24 15.722 128.822 17.4089 128.822 19.6453C128.822 21.8817 129.21 23.624 129.981 24.7955C130.887 26.2353 132.365 26.9538 134.415 26.951C135.226 26.9823 136.031 26.8025 136.752 26.4292C137.473 26.0558 138.084 25.5017 138.526 24.821C139.428 23.332 139.872 21.6107 139.804 19.8711V19.5516C139.804 17.3677 139.273 15.624 138.211 14.3205C137.787 13.7587 137.237 13.3047 136.605 12.9953C135.973 12.6859 135.277 12.5299 134.573 12.5399Z" fill="#86C6CA"/>
<path d="M163.681 29.5869V26.3921C163.015 27.3975 162.106 28.218 161.038 28.7767C159.97 29.3354 158.777 29.6142 157.572 29.5869C154.777 29.5869 152.516 28.6555 150.786 26.7925C149.057 24.9295 148.19 22.4276 148.188 19.2866C148.188 16.1486 149.054 13.6324 150.786 11.7382C152.518 9.84397 154.78 8.88693 157.572 8.86705C158.766 8.82827 159.95 9.08904 161.017 9.62553C162.084 10.162 163 10.9572 163.681 11.9384V9.42936H168.23V29.5912L163.681 29.5869ZM158.292 12.5476C157.531 12.5114 156.773 12.6554 156.079 12.9678C155.384 13.2802 154.774 13.7521 154.296 14.3452C153.333 15.5124 152.852 17.1596 152.852 19.2866C152.852 21.2547 153.224 22.7854 153.968 23.8787C154.846 25.2078 156.266 25.8724 158.228 25.8724C159.957 25.8724 161.315 25.3044 162.3 24.1684C163.232 22.9473 163.698 21.3243 163.698 19.2994C163.698 17.2206 163.232 15.5706 162.3 14.3495C161.821 13.7549 161.208 13.2812 160.512 12.9668C159.816 12.6523 159.055 12.5058 158.292 12.539V12.5476Z" fill="#86C6CA"/>
<path d="M181.819 8.86719C185.227 8.86719 187.823 10.0117 189.606 12.3006C191.256 14.3993 192.081 17.3003 192.081 21.0035H176.618C176.777 22.946 177.295 24.4099 178.173 25.3954C179.05 26.3808 180.316 26.8863 181.968 26.9119C183.178 26.9683 184.373 26.6321 185.376 25.9534C186.178 25.2719 186.807 24.4108 187.212 23.4401H191.766C191.331 25.3092 190.326 26.997 188.891 28.2708C186.964 29.8647 184.523 30.7022 182.024 30.6265C178.965 30.6265 176.524 29.6808 174.718 27.7894C172.801 25.8469 171.843 23.159 171.843 19.7255C171.843 16.6386 172.747 14.0699 174.556 12.0195C176.306 9.91513 178.727 8.86435 181.819 8.86719ZM181.939 12.5775C180.422 12.5775 179.238 13.0035 178.386 13.8555C177.534 14.7075 176.974 15.9456 176.708 17.5701H187.315C186.92 14.2445 185.124 12.5804 181.926 12.5775H181.939Z" fill="#86C6CA"/>
<path d="M205.401 8.86863C206.296 8.83806 207.185 9.01447 208 9.38408V13.9379C207.041 13.6496 206.045 13.506 205.044 13.5119C204.438 13.5111 203.838 13.6347 203.282 13.875C202.726 14.1154 202.225 14.4673 201.81 14.9091C201.258 15.4625 200.827 16.1248 200.545 16.8538C200.263 17.5827 200.135 18.3624 200.17 19.1434V30.0827H195.659V9.43093H200.17V12.383C200.628 11.4432 201.299 10.6234 202.13 9.98897C203.051 9.23604 204.212 8.83853 205.401 8.86863Z" fill="#86C6CA"/>
<path d="M168.23 36.4499V31.9004H163.681V33.6767C163.681 34.2529 163.561 34.8227 163.33 35.3505C163.099 35.8784 162.762 36.3527 162.339 36.7438L161.666 37.3658C160.894 38.0762 159.882 38.47 158.833 38.4691C157.785 38.4702 156.775 38.0762 156.004 37.3658L155.331 36.7438C154.907 36.3536 154.568 35.8795 154.337 35.3515C154.105 34.8236 153.985 34.2533 153.985 33.6767V31.9004H149.444V36.4499H151.719C152.769 36.446 153.781 36.8368 154.556 37.5447L155.229 38.1666C155.653 38.5573 155.991 39.0315 156.222 39.5595C156.453 40.0874 156.572 40.6575 156.571 41.2337V43.0101H161.121V41.2337C161.121 40.6566 161.241 40.0859 161.473 39.5574C161.704 39.0289 162.043 38.5539 162.467 38.1624L163.14 37.5447C163.91 36.833 164.92 36.4376 165.968 36.4371L168.23 36.4499Z" fill="#066F69"/>
<path d="M54.0236 5.5321C52.7018 6.09256 51.5022 6.90579 50.4922 7.92614C49.4737 8.94278 48.6583 10.1442 48.0896 11.4661C47.5133 12.8265 47.2163 14.2889 47.2163 15.7664C47.2163 17.2439 47.5133 18.7063 48.0896 20.0667C49.2297 22.735 51.3553 24.8606 54.0236 26.0007C55.3855 26.577 56.8493 26.8739 58.3281 26.8739C59.807 26.8739 61.2708 26.577 62.6327 26.0007C64.6439 25.1372 66.3618 23.7094 67.5784 21.8899V18.4181C67.5767 18.0704 67.6436 17.7257 67.7753 17.4039C67.9069 17.082 68.1007 16.7892 68.3457 16.5423C68.5906 16.2955 68.8818 16.0993 69.2026 15.965C69.5234 15.8308 69.8675 15.7611 70.2152 15.76H70.2706V28.9655H70.211C69.8618 28.9666 69.5158 28.8986 69.1931 28.7654C68.8703 28.6322 68.5771 28.4363 68.3304 28.1892C68.0837 27.9421 67.8883 27.6486 67.7556 27.3256C67.6229 27.0026 67.5554 26.6566 67.5571 26.3074V26.0177C66.3107 27.1311 64.8791 28.0178 63.3271 28.6375C59.9847 29.9471 56.2634 29.9013 52.9543 28.5097C51.3081 27.8081 49.8126 26.7956 48.5497 25.5278C47.2895 24.2602 46.2781 22.7676 45.5678 21.1274C44.8509 19.434 44.4814 17.6138 44.4814 15.7749C44.4814 13.936 44.8509 12.1158 45.5678 10.4224C46.9884 7.09702 49.6419 4.45115 52.9714 3.0401C54.6669 2.33162 56.4863 1.9668 58.3239 1.9668C60.1615 1.9668 61.9808 2.33162 63.6764 3.0401C65.3205 3.74553 66.8154 4.75751 68.0811 6.022C68.9328 6.87177 69.669 7.82995 70.2706 8.87183L70.0022 9.02945C69.4709 9.33328 68.8515 9.44603 68.2472 9.34894C67.6387 9.24756 67.0853 8.93542 66.6838 8.46714C66.5177 8.28397 66.343 8.10507 66.1599 7.9219C65.1514 6.90167 63.9532 6.08842 62.6327 5.52787C61.2693 4.95717 59.8061 4.66326 58.3281 4.66326C56.8502 4.66326 55.3869 4.95717 54.0236 5.52787V5.5321Z" fill="#066F69"/>
<path d="M58.3223 1.97507C60.1612 1.96022 61.9836 2.32267 63.6769 3.04003C65.3211 3.74546 66.8159 4.75743 68.0816 6.02192C68.9333 6.8717 69.6695 7.82987 70.2711 8.87176L70.0028 9.02937C69.5965 9.25695 69.1394 9.37856 68.6737 9.38295C68.5311 9.38218 68.3887 9.37079 68.2477 9.34886C67.6393 9.24749 67.0858 8.93534 66.6843 8.46707C66.5182 8.2839 66.3435 8.105 66.1604 7.92182C65.1519 6.9016 63.9537 6.08834 62.6332 5.52779C61.2699 4.9571 59.8066 4.66319 58.3287 4.66319C56.8507 4.66319 55.3874 4.9571 54.0241 5.52779C52.7023 6.08824 51.5027 6.90148 50.4927 7.92182C49.4742 8.93847 48.6588 10.1399 48.0901 11.4618C47.5138 12.8222 47.2168 14.2846 47.2168 15.7621C47.2168 17.2395 47.5138 18.7019 48.0901 20.0624C49.2293 22.7323 51.355 24.8595 54.0241 26.0006C55.386 26.5769 56.8498 26.8739 58.3287 26.8739C59.8075 26.8739 61.2713 26.5769 62.6332 26.0006C64.6444 25.1372 66.3623 23.7093 67.5789 21.8898V18.4181C67.5772 18.0703 67.6441 17.7256 67.7758 17.4038C67.9074 17.0819 68.1013 16.7892 68.3462 16.5423C68.5911 16.2954 68.8823 16.0992 69.2031 15.965C69.5239 15.8307 69.868 15.761 70.2158 15.7599H70.2711V28.9654H70.2115C69.8623 28.9666 69.5164 28.8986 69.1936 28.7653C68.8708 28.6321 68.5776 28.4363 68.3309 28.1892C68.0842 27.942 67.8888 27.6485 67.7561 27.3255C67.6234 27.0026 67.5559 26.6565 67.5576 26.3073V26.0176C66.3113 27.131 64.8796 28.0177 63.3276 28.6375C59.9853 29.9471 56.2639 29.9012 52.9549 28.5096C51.3086 27.808 49.8131 26.7956 48.5502 25.5277C47.29 24.2601 46.2786 22.7676 45.5683 21.1273C44.8514 19.4339 44.482 17.6138 44.482 15.7748C44.482 13.9359 44.8514 12.1158 45.5683 10.4223C46.9889 7.09694 49.6424 4.45107 52.9719 3.04003C54.663 2.31939 56.4841 1.954 58.3223 1.96654M58.3223 1.24239C56.3857 1.23212 54.4675 1.61922 52.6865 2.37976C49.2066 3.86637 46.4321 6.63479 44.9378 10.1114C44.1817 11.8956 43.792 13.8136 43.792 15.7514C43.792 17.6892 44.1817 19.6073 44.9378 21.3915C45.6781 23.1239 46.7373 24.7018 48.0603 26.0432C49.3906 27.3729 50.9621 28.4369 52.6907 29.1784C56.1771 30.642 60.0965 30.6894 63.6172 29.3105C64.8298 28.8238 65.9751 28.1839 67.0251 27.4064C67.1926 27.8973 67.4727 28.3423 67.843 28.7056C68.1538 29.0231 68.5259 29.2741 68.9368 29.4432C69.3476 29.6124 69.7885 29.6962 70.2328 29.6896H70.9953V15.04H70.2115C69.3182 15.0434 68.4627 15.4009 67.8326 16.0342C67.2025 16.6675 66.8493 17.5247 66.8505 18.4181V21.6683C66.4912 22.181 66.0878 22.6614 65.6449 23.1039C64.6961 24.0527 63.5739 24.8105 62.3393 25.3361C61.0681 25.8731 59.7022 26.1498 58.3223 26.1498C56.9423 26.1498 55.5764 25.8731 54.3052 25.3361C53.0706 24.8105 51.9484 24.0527 50.9996 23.1039C50.0435 22.1501 49.2786 21.0223 48.7461 19.7812C48.2091 18.5116 47.9323 17.147 47.9323 15.7684C47.9323 14.3899 48.2091 13.0253 48.7461 11.7557C49.2808 10.5171 50.0455 9.39106 50.9996 8.43725C51.9435 7.48232 53.065 6.72114 54.301 6.19656C55.575 5.6651 56.9418 5.39147 58.3223 5.39147C59.7027 5.39147 61.0695 5.6651 62.3436 6.19656C63.579 6.72016 64.7004 7.47984 65.6449 8.43298C65.8281 8.62042 65.9942 8.79083 66.1519 8.96123C66.4642 9.32229 66.8509 9.6116 67.2854 9.80937C67.7199 10.0071 68.192 10.1087 68.6694 10.1071C69.2544 10.1083 69.8302 9.96175 70.3435 9.68114L70.6247 9.51926L71.2594 9.15716L70.8931 8.52671C69.305 5.78992 66.8735 3.64086 63.9623 2.40105C62.1798 1.64052 60.2602 1.25343 58.3223 1.26368V1.24239Z" fill="#066F69"/>
<path d="M0.719727 28.9489V2.57617H20.7708V2.61452C20.7725 2.96407 20.7049 3.31048 20.5719 3.63375C20.4389 3.95701 20.2432 4.25072 19.996 4.49789C19.7489 4.74506 19.4552 4.9408 19.1319 5.07379C18.8086 5.20677 18.4622 5.27435 18.1127 5.27266H3.41621V14.4058H17.1925V14.4441C17.1937 14.7933 17.1257 15.1393 16.9924 15.462C16.8592 15.7848 16.6634 16.078 16.4163 16.3247C16.1691 16.5714 15.8756 16.7668 15.5526 16.8995C15.2297 17.0322 14.8836 17.0997 14.5344 17.098H3.41621V26.2524H18.1127C18.4629 26.2457 18.8107 26.3111 19.1346 26.4445C19.4585 26.5778 19.7516 26.7763 19.9955 27.0277C20.2442 27.2692 20.4412 27.5588 20.5745 27.8788C20.7078 28.1988 20.7746 28.5426 20.7708 28.8892V28.9489H0.719727Z" fill="#066F69"/>
<path d="M20.771 2.57572V2.61407C20.7727 2.96361 20.7051 3.31003 20.5721 3.63329C20.4391 3.95656 20.2434 4.25026 19.9962 4.49743C19.7491 4.7446 19.4554 4.94035 19.1321 5.07333C18.8088 5.20632 18.4624 5.2739 18.1129 5.27221H3.4164V14.4053H17.1927V14.4437C17.1939 14.7929 17.1259 15.1388 16.9926 15.4616C16.8594 15.7843 16.6636 16.0776 16.4164 16.3243C16.1693 16.571 15.8758 16.7663 15.5528 16.8991C15.2298 17.0318 14.8838 17.0992 14.5346 17.0975H3.4164V26.2519H18.1129C18.4631 26.2453 18.8109 26.3106 19.1348 26.444C19.4587 26.5774 19.7518 26.7759 19.9957 27.0272C20.2444 27.2687 20.4414 27.5583 20.5747 27.8783C20.708 28.1984 20.7748 28.5421 20.771 28.8888V28.9484H0.719915V2.57572H20.771ZM21.4909 1.85156H0V29.6684H21.4909V28.8888C21.4904 28.4463 21.4025 28.0083 21.2322 27.5999C21.062 27.1915 20.8128 26.8208 20.499 26.5089C20.1851 26.197 19.8128 25.9502 19.4033 25.7826C18.9939 25.6149 18.5553 25.5298 18.1129 25.532H4.14057V17.8217H14.5346C14.9787 17.8228 15.4187 17.7363 15.8293 17.5669C16.2399 17.3976 16.613 17.1489 16.9273 16.8351C17.2415 16.5212 17.4907 16.1484 17.6605 15.738C17.8303 15.3276 17.9175 14.8878 17.9169 14.4437V13.6897H4.14057V5.99212H18.1129C18.557 5.99381 18.997 5.9076 19.4076 5.73844C19.8182 5.56927 20.1913 5.3205 20.5053 5.00648C20.8193 4.69247 21.0681 4.3194 21.2372 3.90879C21.4064 3.49818 21.4926 3.05815 21.4909 2.61407V1.85156Z" fill="#066F69"/>
<path d="M20.771 2.57572V2.61407C20.7727 2.96361 20.7051 3.31003 20.5721 3.63329C20.4391 3.95656 20.2434 4.25026 19.9962 4.49743C19.7491 4.7446 19.4554 4.94035 19.1321 5.07333C18.8088 5.20632 18.4624 5.2739 18.1129 5.27221H3.4164V14.4053H17.1927V14.4437C17.1939 14.7929 17.1259 15.1388 16.9926 15.4616C16.8594 15.7843 16.6636 16.0776 16.4164 16.3243C16.1693 16.571 15.8758 16.7663 15.5528 16.8991C15.2298 17.0318 14.8838 17.0992 14.5346 17.0975H3.4164V26.2519H18.1129C18.4631 26.2453 18.8109 26.3106 19.1348 26.444C19.4587 26.5774 19.7518 26.7759 19.9957 27.0272C20.2444 27.2687 20.4414 27.5583 20.5747 27.8783C20.708 28.1984 20.7748 28.5421 20.771 28.8888V28.9484H0.719915V2.57572H20.771ZM21.4909 1.85156H0V29.6684H21.4909V28.8888C21.4904 28.4463 21.4025 28.0083 21.2322 27.5999C21.062 27.1915 20.8128 26.8208 20.499 26.5089C20.1851 26.197 19.8128 25.9502 19.4033 25.7826C18.9939 25.6149 18.5553 25.5298 18.1129 25.532H4.14057V17.8217H14.5346C14.9787 17.8228 15.4187 17.7363 15.8293 17.5669C16.2399 17.3976 16.613 17.1489 16.9273 16.8351C17.2415 16.5212 17.4907 16.1484 17.6605 15.738C17.8303 15.3276 17.9175 14.8878 17.9169 14.4437V13.6897H4.14057V5.99212H18.1129C18.557 5.99381 18.997 5.9076 19.4076 5.73844C19.8182 5.56927 20.1913 5.3205 20.5053 5.00648C20.8193 4.69247 21.0681 4.3194 21.2372 3.90879C21.4064 3.49818 21.4926 3.05815 21.4909 2.61407V1.85156Z" fill="#066F69"/>
<path d="M36.5584 6.16298C36.325 5.90691 36.0618 5.67953 35.7746 5.48566C34.9539 4.93622 33.9847 4.65084 32.9972 4.66777C31.8207 4.64079 30.6771 5.05746 29.7938 5.83497C29.375 6.16948 29.0369 6.59399 28.8046 7.07702C28.5723 7.56004 28.4518 8.08918 28.4519 8.62516C28.4183 9.48487 28.7001 10.3272 29.2443 10.9936C29.8228 11.648 30.5175 12.1896 31.2933 12.5911C32.1587 13.0504 33.0489 13.4614 33.9599 13.8222C34.9141 14.2226 35.8513 14.6486 36.7586 15.1001C37.6401 15.5315 38.4679 16.0648 39.2251 16.689C39.9558 17.2988 40.5508 18.0548 40.9716 18.9084C41.4312 19.9076 41.6528 20.9998 41.6191 22.0991C41.6255 23.1077 41.3965 24.1039 40.9503 25.0085C40.496 25.9205 39.8629 26.7317 39.0888 27.394C37.3828 28.8242 35.2233 29.6004 32.9972 29.5836C31.14 29.6133 29.3185 29.0721 27.7789 28.033C26.2979 27.1084 25.1849 25.6972 24.6309 24.0415L25.2358 23.9052C25.5084 23.855 25.785 23.8293 26.0622 23.8286C26.5239 23.8232 26.9813 23.9175 27.4032 24.105C27.8252 24.2924 28.2018 24.5686 28.5073 24.9148C28.8295 25.2982 29.2071 25.6313 29.6277 25.9031C30.6114 26.5677 31.7761 26.9128 32.9631 26.8914C34.3941 26.9273 35.7859 26.4223 36.8609 25.4771C37.3655 25.0719 37.7724 24.5581 38.0511 23.9741C38.3299 23.39 38.4735 22.7505 38.4711 22.1033C38.5152 21.1202 38.2138 20.1526 37.6191 19.3685C37.0093 18.6308 36.2593 18.0212 35.4125 17.5751C34.4907 17.0771 33.5405 16.6333 32.567 16.246C31.6426 15.8584 30.748 15.4537 29.8918 15.0235C29.0626 14.617 28.2811 14.1198 27.5616 13.541C26.8737 12.9882 26.3129 12.2937 25.9173 11.5048C25.4909 10.6062 25.2836 9.61937 25.3124 8.62516C25.3065 7.73171 25.5092 6.84921 25.9046 6.04796C26.305 5.23535 26.8641 4.51114 27.5489 3.91804C29.0519 2.6172 30.9843 1.92045 32.9716 1.96276C34.6288 1.93681 36.2546 2.41682 37.6319 3.33871C38.9321 4.16856 39.9057 5.42207 40.388 6.88716L39.715 7.04051C39.4355 7.10493 39.1498 7.13779 38.863 7.13848C38.4328 7.14032 38.0068 7.05482 37.6106 6.88714C37.2145 6.71946 36.8565 6.4731 36.5584 6.16298Z" fill="#066F69"/>
<path d="M32.9752 1.97548C34.6324 1.94953 36.2581 2.42951 37.6355 3.3514C38.9357 4.18125 39.9093 5.43477 40.3916 6.89986L39.7186 7.05321C39.4391 7.11763 39.1534 7.15051 38.8666 7.1512C38.4312 7.15488 37.9997 7.06906 37.5989 6.89905C37.1981 6.72905 36.8364 6.47848 36.5365 6.16291C36.303 5.90684 36.0399 5.67946 35.7526 5.48559C34.9319 4.93614 33.9628 4.65077 32.9752 4.6677C31.7987 4.64072 30.6552 5.05739 29.7718 5.8349C29.353 6.16941 29.015 6.59392 28.7827 7.07694C28.5504 7.55997 28.4298 8.08911 28.43 8.62509C28.3964 9.48479 28.6782 10.3271 29.2223 10.9936C29.8008 11.6479 30.4955 12.1896 31.2713 12.591C32.1367 13.0504 33.027 13.4614 33.938 13.8221C34.8922 14.2225 35.8293 14.6485 36.7367 15.1001C37.6181 15.5314 38.4459 16.0647 39.2031 16.689C39.9339 17.2987 40.5288 18.0547 40.9497 18.9084C41.4092 19.9076 41.6309 20.9997 41.5972 22.099C41.6036 23.1076 41.3746 24.1039 40.9284 25.0085C40.474 25.9204 39.841 26.7316 39.0668 27.394C37.3608 28.8242 35.2014 29.6004 32.9752 29.5835C31.118 29.6132 29.2965 29.072 27.7569 28.0329C26.284 27.1046 25.1788 25.6939 24.6302 24.0415L25.2351 23.9052C25.5077 23.8549 25.7843 23.8292 26.0615 23.8285C26.5232 23.8232 26.9806 23.9174 27.4026 24.1049C27.8245 24.2923 28.2011 24.5686 28.5067 24.9147C28.8288 25.2981 29.2064 25.6312 29.627 25.903C30.6107 26.5676 31.7754 26.9127 32.9624 26.8913C34.3934 26.9272 35.7852 26.4222 36.8602 25.477C37.3649 25.0718 37.7717 24.5581 38.0505 23.974C38.3292 23.3899 38.4728 22.7505 38.4704 22.1032C38.5146 21.1201 38.2132 20.1526 37.6185 19.3684C37.0087 18.6307 36.2587 18.0211 35.4119 17.575C34.49 17.077 33.5399 16.6332 32.5663 16.246C31.6419 15.8583 30.7473 15.4536 29.8911 15.0234C29.062 14.6169 28.2805 14.1198 27.561 13.541C26.8731 12.9881 26.3122 12.2937 25.9167 11.5048C25.4903 10.6062 25.283 9.61929 25.3118 8.62509C25.3058 7.73164 25.5086 6.84914 25.9039 6.04789C26.3043 5.23528 26.8634 4.51107 27.5482 3.91797C29.0513 2.61713 30.9836 1.92038 32.971 1.96269M32.971 1.23853C30.8115 1.19667 28.713 1.95536 27.0796 3.36846C26.3194 4.01783 25.6991 4.81493 25.2564 5.71137C24.8125 6.61226 24.5836 7.60378 24.5876 8.60806C24.5436 9.66043 24.7496 10.7082 25.1887 11.6656C25.6278 12.623 26.2874 13.4628 27.1137 14.116C27.874 14.728 28.6997 15.2537 29.5759 15.6837C30.4278 16.1096 31.3522 16.5356 32.2937 16.9233C33.2437 17.3026 34.171 17.7364 35.0711 18.2225C35.8348 18.6232 36.5111 19.172 37.0604 19.837C37.5561 20.49 37.8051 21.2972 37.7633 22.116C37.7648 22.6599 37.6429 23.197 37.4068 23.687C37.1707 24.1769 36.8265 24.6069 36.4001 24.9446C35.4612 25.7729 34.2439 26.2157 32.9923 26.1842C31.9507 26.2105 30.9266 25.9128 30.0615 25.3322C29.6969 25.0985 29.3695 24.8113 29.0902 24.4802C28.7164 24.0602 28.2567 23.7252 27.7423 23.4981C27.2279 23.2711 26.6706 23.1571 26.1084 23.1639C25.7882 23.1649 25.4689 23.1949 25.1541 23.2534H25.1243L24.5194 23.3897L23.7441 23.5644L23.9912 24.3184C24.5893 26.1246 25.7932 27.6686 27.3991 28.689C29.052 29.7781 30.9961 30.3409 32.9752 30.3035C35.3734 30.3199 37.6991 29.4818 39.5354 27.9392C40.3831 27.2122 41.0769 26.3229 41.5759 25.3237C42.0706 24.3195 42.3258 23.2142 42.3213 22.0947C42.3538 20.8845 42.106 19.6832 41.5972 18.5846C41.1312 17.6405 40.4723 16.8046 39.6632 16.1309C38.8655 15.4627 37.9919 14.8908 37.0604 14.427C36.1445 13.9712 35.1861 13.5324 34.2191 13.149C33.3285 12.7972 32.4582 12.3961 31.6121 11.9478C30.9161 11.5876 30.2923 11.1024 29.7718 10.5165C29.3388 9.98074 29.1174 9.30469 29.1499 8.61659C29.1503 8.18388 29.249 7.75691 29.4387 7.36799C29.6283 6.97907 29.9039 6.63837 30.2447 6.37164C30.9958 5.70661 31.9724 5.35315 32.9752 5.38335C33.8182 5.3646 34.6465 5.60552 35.348 6.07345C35.5884 6.23888 35.8098 6.43032 36.0082 6.64428C36.375 7.02751 36.8163 7.33174 37.3048 7.53832C37.7934 7.74489 38.3191 7.84944 38.8496 7.84556C39.1878 7.84362 39.5249 7.80505 39.8549 7.73053L40.5365 7.57292L41.3032 7.39399L41.0604 6.64428C40.527 5.02611 39.4531 3.64077 38.0189 2.72095C36.5226 1.7206 34.7579 1.19774 32.9582 1.22148L32.971 1.23853Z" fill="#066F69"/>
</g>
<defs>
<clipPath id="clip0_268_24">
<rect width="208" height="43" fill="white"/>
</clipPath>
</defs>
</svg>
