<svg width="30" height="30" viewBox="0 0 30 30" fill="none" xmlns="http://www.w3.org/2000/svg">
<path d="M6.83333 9.0333H4C3.44771 9.0333 3 9.48102 3 10.0333V27.2C3 27.7523 3.44772 28.2 4 28.2H17.3333C17.8856 28.2 18.3333 27.7523 18.3333 27.2V25.1333M10.9 2.1333H20.2191C20.4843 2.1333 20.7387 2.23866 20.9262 2.42619L25.7071 7.20707C25.8946 7.39461 26 7.64896 26 7.91418V21.0666C26 21.6189 25.5523 22.0666 25 22.0666H10.9C10.3477 22.0666 9.9 21.6189 9.9 21.0666V3.1333C9.9 2.58102 10.3477 2.1333 10.9 2.1333Z" stroke="#86C6CA" stroke-width="3"/>
<path d="M20 2V7.5C20 7.77614 20.2239 8 20.5 8H26" stroke="#86C6CA" stroke-width="3"/>
</svg>
