<svg width="27" height="27" viewBox="0 0 27 27" fill="none" xmlns="http://www.w3.org/2000/svg">
<g clip-path="url(#clip0_1056_155)">
<path d="M20.6452 4.82196C19.767 4.82196 19.0645 5.5245 19.0645 6.40268C19.0645 7.28086 19.767 7.9834 20.6452 7.9834C21.5233 7.9834 22.2259 7.28086 22.2259 6.40268C22.2259 5.5245 21.5233 4.82196 20.6452 4.82196Z" fill="white"/>
<path d="M13.6035 6.84979C9.93112 6.84979 6.94531 9.8356 6.94531 13.508C6.94531 17.1804 9.93112 20.1662 13.6035 20.1662C17.2759 20.1662 20.2617 17.1804 20.2617 13.508C20.2617 9.8356 17.2759 6.84979 13.6035 6.84979ZM13.6035 17.7711C11.2564 17.7711 9.34034 15.8551 9.34034 13.508C9.34034 11.1609 11.2564 9.24483 13.6035 9.24483C15.9506 9.24483 17.8667 11.1609 17.8667 13.508C17.8667 15.8551 15.9506 17.7711 13.6035 17.7711Z" fill="white"/>
<path d="M18.8888 27H8.11118C3.64045 27 0 23.3596 0 18.8888V8.11118C0 3.64045 3.64045 0 8.11118 0H18.8888C23.3595 0 27 3.64045 27 8.11118V18.8888C27 23.3755 23.3595 27 18.8888 27ZM8.09522 2.53873C5.02958 2.53873 2.52277 5.04554 2.52277 8.11118V18.8888C2.52277 21.9545 5.02958 24.4613 8.09522 24.4613H18.8729C21.9385 24.4613 24.4453 21.9545 24.4453 18.8888V8.11118C24.4453 5.04554 21.9385 2.53873 18.8729 2.53873H8.09522Z" fill="white"/>
</g>
<defs>
<clipPath id="clip0_1056_155">
<rect width="27" height="27" fill="white"/>
</clipPath>
</defs>
</svg>
