<svg width="27" height="27" viewBox="0 0 27 27" fill="none" xmlns="http://www.w3.org/2000/svg">
<g clip-path="url(#clip0_1056_155)">
<path d="M24.9991 27H2.00093C0.895814 27 0 26.1042 0 24.9991V2.00093C0 0.895814 0.895814 0 2.00093 0H24.997C26.1021 0 26.9979 0.895814 26.9979 2.00093V24.997C27 26.1042 26.1042 27 24.9991 27ZM5.99233 3.85953C4.71977 3.85953 3.69 4.8893 3.69 6.16186C3.69 7.43442 4.71977 8.46419 5.99233 8.46419C7.26488 8.46419 8.29465 7.43442 8.29465 6.16186C8.29465 4.8893 7.26488 3.85953 5.99233 3.85953ZM8.04349 10.2788H4.05419V23.1405H8.04349V10.2788ZM18.8749 9.92302C15.8023 9.92302 14.3853 11.7942 14.3853 12.5602V10.2788H10.4923V23.1405H14.3853V19.4986V17.3323C14.3853 14.6072 15.0719 13.523 17.1167 13.523C18.136 13.4874 18.9816 14.3037 18.9816 15.323V23.1384H22.9898V16.3151C22.9898 11.0533 20.6456 9.92302 18.8749 9.92302Z" fill="white"/>
</g>
<defs>
<clipPath id="clip0_1056_155">
<rect width="27" height="27" fill="white"/>
</clipPath>
</defs>
</svg>
