<svg width="65" height="50" viewBox="0 0 65 50" fill="none" xmlns="http://www.w3.org/2000/svg">
<g clip-path="url(#clip0_298_17)">
<path d="M12.7041 0L-1 6.91889L12.7041 13.8378L26.4083 6.91889L12.7041 0Z" fill="#0A0A0A"/>
<path d="M12.7041 15.0234L-1 21.9423L12.7041 28.8612L26.4083 21.9423L12.7041 15.0234Z" fill="#0A0A0A"/>
<path d="M-1 6.91992V21.8269L12.7041 28.7458V13.8388L-1 6.91992Z" fill="white"/>
<path d="M26.4082 6.91992V21.8269L12.7041 28.7458V13.8388L26.4082 6.91992Z" fill="#28292F"/>
<path d="M45.6621 33.5282C48.9098 31.3096 48.9248 28.0682 45.694 26.3025L40.144 23.2699C39.5269 22.9396 38.8684 22.6854 38.1842 22.5135C38.2851 22.7408 38.3595 22.9733 38.4099 23.2082C38.51 23.6697 38.517 24.1422 38.4259 24.618L43.8342 27.5729C46.0445 28.7807 46.0348 30.9985 43.8121 32.5165C41.5895 34.0345 37.9833 34.2881 35.773 33.0803L30.3647 30.1254L30.223 30.0477C30.0226 29.9368 29.8319 29.8104 29.653 29.6699C29.4623 29.5232 29.289 29.3571 29.1361 29.1746C28.8746 28.8662 28.6962 28.5015 28.6165 28.1121C28.5819 27.933 28.5704 27.7521 28.5819 27.5687C28.5926 27.3886 28.6209 27.2086 28.6758 27.0277C28.8838 26.3482 29.4069 25.6762 30.2452 25.1032C31.0834 24.531 32.1182 24.1388 33.2007 23.9368C33.4884 23.8836 33.7787 23.8464 34.07 23.8193C33.97 23.4366 33.7618 23.0875 33.4681 22.8101C33.2918 22.6391 33.0951 22.4885 32.8821 22.3613C32.5466 22.4196 32.2138 22.4864 31.8863 22.5701C30.609 22.8938 29.4043 23.4043 28.3952 24.0932C27.3861 24.7829 26.6903 25.5706 26.3053 26.382C26.2107 26.5848 26.1343 26.7949 26.0769 27.01C26.0176 27.2255 25.9831 27.441 25.9672 27.6557C25.9154 28.3331 26.0842 29.0091 26.4505 29.5913C26.5838 29.8121 26.7392 30.0201 26.9143 30.2125C27.2887 30.6199 27.7694 30.9943 28.3624 31.318L33.9124 34.3506C37.1433 36.1163 42.4135 35.7469 45.6621 33.5282Z" fill="#066F69"/>
<path d="M25.3892 29.3804C25.29 29.1566 25.2144 28.9238 25.1635 28.6857C25.0626 28.2212 25.0571 27.7424 25.1476 27.2759L19.7392 24.321C17.5289 23.1132 17.5387 20.8954 19.7613 19.3774C21.984 17.8594 25.5901 17.6058 27.8004 18.8136L33.2088 21.7685L33.3504 21.8462C33.5628 21.9629 33.7487 22.0905 33.9204 22.224C34.1205 22.3796 34.2931 22.5452 34.4374 22.7193C34.71 23.0498 34.8844 23.4082 34.957 23.7818C34.9915 23.961 35.003 24.1418 34.9915 24.3252C34.9818 24.5084 34.9503 24.6898 34.8977 24.8662C34.6896 25.5457 34.1665 26.2177 33.3283 26.7907C32.49 27.3629 31.4552 27.7551 30.3727 27.9571C30.085 28.0104 29.7947 28.0475 29.5035 28.0746C29.592 28.4347 29.7929 28.7778 30.1054 29.0838C30.27 29.2452 30.4647 29.3957 30.6913 29.5326C31.0268 29.4743 31.3596 29.4075 31.6872 29.3238C32.9645 29.0001 34.1692 28.4896 35.1783 27.8007C36.1873 27.1119 36.8831 26.3233 37.2681 25.5119C37.3664 25.304 37.439 25.0944 37.4965 24.8839C37.5558 24.6684 37.5903 24.4529 37.6063 24.2382C37.658 23.5609 37.4892 22.8848 37.123 22.3027C36.9896 22.0818 36.8343 21.8738 36.6591 21.6814C36.2439 21.2389 35.7545 20.8652 35.211 20.5759L29.661 17.5433C26.431 15.7785 21.1599 16.1478 17.9122 18.3665C14.6645 20.5852 14.6495 23.8266 17.8803 25.5922L23.4303 28.6248C24.0471 28.955 24.7053 29.2089 25.3892 29.3804Z" fill="#066F69"/>
<path d="M50.75 20.8652L37.0459 27.7841L50.75 34.7039L64.4542 27.7841L50.75 20.8652Z" fill="#0A0A0A"/>
<path d="M50.75 35.7715L37.0459 42.6912L50.75 49.6101L64.4542 42.6912L50.75 35.7715Z" fill="#0A0A0A"/>
<path d="M37.0459 27.7852V42.6921L50.75 49.611V34.7049L37.0459 27.7852Z" fill="white"/>
<path d="M64.4541 27.7852V42.6921L50.75 49.611V34.7049L64.4541 27.7852Z" fill="#28292F"/>
</g>
<defs>
<clipPath id="clip0_298_17">
<rect width="65" height="50" fill="white"/>
</clipPath>
</defs>
</svg>
