<svg width="65" height="80" viewBox="0 0 65 80" fill="none" xmlns="http://www.w3.org/2000/svg">
<g clip-path="url(#clip0_1084_96)">
<path d="M56.1 80.2941H9C4.02944 80.2941 0 76.2647 0 71.2941V9C0 4.02944 4.02943 0 8.99999 0H42.9869C43.2515 0 43.5052 0.104835 43.6927 0.291549L64.8058 21.3245C64.9941 21.5122 65.1 21.7671 65.1 22.033V71.2941C65.1 76.2647 61.0706 80.2941 56.1 80.2941Z" stroke="#8F8F8F" stroke-width="3"/>
<path d="M41.0996 -1V22.5C41.0996 22.7761 41.3235 23 41.5996 23H65.0996" stroke="#8F8F8F" stroke-width="3"/>
<path d="M22.0478 23L32.5 39.4794L42.9522 23H49.6715L35.9343 44.2933L50 66H43.221L32.5 49.1957L21.779 66H15L29.0657 44.2933L15.3285 23H22.0478Z" fill="#8F8F8F"/>
</g>
<defs>
<clipPath id="clip0_1084_96">
<rect width="65" height="80" fill="white"/>
</clipPath>
</defs>
</svg>
